<?xml version="1.0" encoding="utf-8"?>
<!-- Generator: Adobe Illustrator 24.2.1, SVG Export Plug-In . SVG Version: 6.00 Build 0)  -->
<svg version="1.1" xmlns="http://www.w3.org/2000/svg" xmlns:xlink="http://www.w3.org/1999/xlink" x="0px" y="0px"
	 viewBox="0 0 144 144" enable-background="new 0 0 144 144" xml:space="preserve">
<g id="Capa_1">
	<g>
		
			<linearGradient id="SVGID_5_" gradientUnits="userSpaceOnUse" x1="-407.2259" y1="507.7828" x2="-292.2869" y2="507.7828" gradientTransform="matrix(0 -1 1 0 -435.7828 -277.7564)">
			<stop  offset="0.2374" style="stop-color:#FFFFFF;stop-opacity:0"/>
			<stop  offset="0.4859" style="stop-color:#C5F9FF;stop-opacity:0.3369"/>
			<stop  offset="0.7053" style="stop-color:#99F5FF;stop-opacity:0.6345"/>
			<stop  offset="0.8752" style="stop-color:#7EF2FF;stop-opacity:0.8649"/>
			<stop  offset="0.9749" style="stop-color:#74F1FF"/>
		</linearGradient>
		<circle fill="url(#SVGID_5_)" cx="72" cy="72" r="57.47"/>
	</g>
	<g>
		<path fill="#FFFFFF" d="M92.026,24.823H51.974c-3.61,0-6.547,3.144-6.547,7.009v73.095v0.385v7.317
			c0,3.61,2.937,6.547,6.547,6.547h40.052c3.61,0,6.547-2.937,6.547-6.547v-4.621v-3.081V54.693v-5.607V31.832
			C98.573,27.967,95.636,24.823,92.026,24.823z"/>
		<g>
			<path fill="none" d="M59.788,63.562c-0.123,0-0.238-0.028-0.34-0.082l-0.172-0.089l-0.07,0.178
				c-0.049,0.124-0.075,0.249-0.075,0.374v1.334c0,0.562,0.457,1.018,1.018,1.018h0.664v-2.582l-0.13-0.033
				C60.311,63.588,59.991,63.565,59.788,63.562z"/>
			<path fill="none" d="M85.542,65.277v-1.334c0-0.14-0.029-0.285-0.086-0.431l-0.132-0.331l-0.317,0.168
				c-0.079,0.041-0.179,0.065-0.277,0.065l-0.056,0.001c-0.139,0.006-0.465,0.022-0.868,0.121l-0.245,0.063v2.845h0.815
				C85.019,66.443,85.542,65.92,85.542,65.277z"/>
			<path fill="none" d="M62.544,63.136v-7.605c0-1.773,1.442-3.215,3.215-3.215h2.421c0.767,0,1.514,0.269,2.106,0.756l0.224,0.185
				c0.982,0.802,2.522,0.802,3.505,0l0.239-0.195c0.59-0.481,1.334-0.746,2.096-0.746h2.417c1.773,0,3.215,1.442,3.215,3.215v7.605
				l0.472-0.259c0.092-0.046,0.178-0.087,0.29-0.141c0.018-0.012,0.044-0.022,0.084-0.038c0.352-0.146,0.721-0.252,1.101-0.316
				l0.266-0.048v-9.362c0-3.016-2.454-5.471-5.471-5.471H65.8c-3.016,0-5.471,2.454-5.471,5.471v9.362l0.267,0.048
				c0.385,0.066,0.758,0.174,1.108,0.322c0.029,0.01,0.056,0.02,0.108,0.049c0.081,0.036,0.168,0.078,0.255,0.123L62.544,63.136z"/>
			<g>
				<path fill="#00569E" d="M51.846,119.729c-3.771,0-6.839-3.068-6.839-6.839V31.575c0-4.027,3.068-7.305,6.839-7.305h40.309
					c3.771,0,6.839,3.277,6.839,7.305v81.314c0,3.771-3.068,6.839-6.839,6.839H51.846z M46.282,112.89
					c0,3.068,2.496,5.564,5.563,5.564h40.309c3.067,0,5.563-2.496,5.563-5.564v-5.563H46.282V112.89z M97.718,106.051V35.592H46.282
					v70.459H97.718z M97.718,34.131v-2.556c0-3.222-2.496-5.843-5.563-5.843H51.846c-3.067,0-5.563,2.621-5.563,5.843v2.556H97.718z
					"/>
				<path fill="#00569E" d="M92.154,24.521c3.633,0,6.589,3.164,6.589,7.054v17.364v5.643v50.556v3.101v4.651
					c0,3.633-2.956,6.589-6.589,6.589H51.846c-3.633,0-6.589-2.956-6.589-6.589v-7.364v-0.388V31.575
					c0-3.89,2.956-7.054,6.589-7.054H92.154 M46.032,34.381h1.163h49.611h1.163v-1.163v-1.643c0-3.36-2.608-6.093-5.814-6.093
					H51.846c-3.206,0-5.814,2.733-5.814,6.093v1.643V34.381 M46.032,106.301h1.163h49.611h1.163v-1.163V54.582v-5.643V36.505v-1.163
					h-1.163H47.195h-1.163v1.163v68.633V106.301 M51.846,118.704h40.309c3.206,0,5.814-2.608,5.814-5.814v-4.651v-1.163h-1.163
					H47.195h-1.163v1.163v4.651C46.032,116.096,48.64,118.704,51.846,118.704 M92.154,24.021H51.846
					c-3.909,0-7.089,3.389-7.089,7.554v73.563v0.388v7.364c0,3.909,3.18,7.089,7.089,7.089h40.309c3.909,0,7.089-3.18,7.089-7.089
					v-4.651v-3.101V54.582v-5.643V31.575C99.243,27.41,96.063,24.021,92.154,24.021L92.154,24.021z M46.532,33.881v-0.663v-1.643
					c0-3.084,2.384-5.593,5.314-5.593h40.309c2.93,0,5.314,2.509,5.314,5.593v1.643v0.663h-0.663H47.195H46.532L46.532,33.881z
					 M46.532,35.842h0.663h49.611h0.663v0.663v12.434v5.643v50.556v0.663h-0.663H47.195h-0.663v-0.663V36.505V35.842L46.532,35.842z
					 M46.532,107.576h0.663h49.611h0.663v0.663v4.651c0,2.93-2.384,5.314-5.314,5.314H51.846c-2.93,0-5.314-2.384-5.314-5.314
					v-4.651V107.576L46.532,107.576z"/>
			</g>
			<g>
				<path fill="#00569E" d="M67.518,31.163c-0.332,0-0.602-0.27-0.602-0.601v-0.34c0-0.332,0.27-0.602,0.602-0.602h5.896
					c0.332,0,0.602,0.27,0.602,0.602v0.34c0,0.331-0.27,0.601-0.602,0.601H67.518z"/>
				<path fill="#00569E" d="M73.413,29.872c0.194,0,0.351,0.157,0.351,0.351v0.339c0,0.194-0.157,0.351-0.351,0.351h-5.896
					c-0.194,0-0.351-0.157-0.351-0.351v-0.339c0-0.194,0.157-0.351,0.351-0.351H73.413 M73.413,29.372h-5.896
					c-0.469,0-0.851,0.382-0.851,0.851v0.339c0,0.469,0.382,0.851,0.851,0.851h5.896c0.469,0,0.851-0.382,0.851-0.851v-0.339
					C74.265,29.754,73.883,29.372,73.413,29.372L73.413,29.372z"/>
			</g>
			<g>
				<path fill="#00569E" d="M75.646,31.163c-0.425,0-0.771-0.346-0.771-0.771c0-0.426,0.346-0.771,0.771-0.771
					c0.426,0,0.771,0.346,0.771,0.771C76.418,30.818,76.072,31.163,75.646,31.163z"/>
				<path fill="#00569E" d="M75.647,29.872c0.288,0,0.521,0.233,0.521,0.521s-0.233,0.521-0.521,0.521s-0.521-0.233-0.521-0.521
					S75.359,29.872,75.647,29.872 M75.647,29.372c-0.563,0-1.021,0.458-1.021,1.021c0,0.563,0.458,1.021,1.021,1.021
					s1.021-0.458,1.021-1.021C76.668,29.83,76.21,29.372,75.647,29.372L75.647,29.372z"/>
			</g>
			<g>
				<path fill="#FF698B" d="M72,117.367c-2.436,0-4.417-1.982-4.417-4.418s1.981-4.417,4.417-4.417s4.417,1.981,4.417,4.417
					S74.435,117.367,72,117.367z"/>
				<path fill="#00569E" d="M72,109.183c2.08,0,3.767,1.687,3.767,3.767s-1.687,3.767-3.767,3.767c-2.081,0-3.767-1.687-3.767-3.767
					S69.919,109.183,72,109.183 M72,107.883c-2.794,0-5.067,2.273-5.067,5.067s2.273,5.067,5.067,5.067s5.067-2.273,5.067-5.067
					S74.794,107.883,72,107.883L72,107.883z"/>
			</g>
		</g>
		<g>
			<path fill="#C4F1FF" d="M71.474,56.505c0,0-5.496,8.019-5.44,15.056s5.44,15.477,5.44,15.477S57.93,86.007,57.179,73.103
				C56.271,57.503,71.474,56.505,71.474,56.505z"/>
			<path fill="#00C0DB" d="M64.797,58.501l0.348,4.527l-3.447,4.154l-0.105,1.816l-5.003,2.001c0,0,1.001-5.003,3.002-8.005
				C61.885,59.554,64.797,58.501,64.797,58.501z"/>
			<path fill="#FF698B" d="M57.59,76.003l4.226-1.533c0,0,0.386,2.333,1.683,4.74c0.989,1.835,4.907,1.144,5.753,3.596
				s-0.362,4.033-0.362,4.033s-4.972-0.712-7.874-4.033C57.789,79.111,57.59,76.003,57.59,76.003z"/>
			<g>
				<g>
					<path fill="#00569E" stroke="#00569E" stroke-width="0.5359" stroke-miterlimit="10" d="M64.628,90.66
						c0.052,0,0.103,0.01,0.151,0.029c1.208,0.482,2.473,0.842,3.761,1.069c0.221,0.039,0.369,0.25,0.33,0.47
						c-0.035,0.195-0.203,0.336-0.4,0.336c-0.024,0-0.048-0.002-0.071-0.006c-1.342-0.236-2.661-0.611-3.921-1.114
						c-0.101-0.04-0.18-0.118-0.223-0.217c-0.043-0.1-0.044-0.21-0.004-0.311C64.313,90.76,64.461,90.66,64.628,90.66"/>
				</g>
				<g>
					<path fill="#00569E" stroke="#00569E" stroke-width="0.5359" stroke-miterlimit="10" d="M76.413,91.518
						c0.189,0,0.352,0.129,0.396,0.312c0.052,0.218-0.084,0.438-0.301,0.489c-1.317,0.313-2.677,0.491-4.055,0.531
						c-0.221,0-0.399-0.173-0.406-0.395c-0.003-0.109,0.036-0.212,0.111-0.291c0.075-0.079,0.175-0.124,0.284-0.127
						c1.308-0.038,2.612-0.209,3.878-0.509C76.35,91.522,76.381,91.518,76.413,91.518"/>
				</g>
				<g>
					<g>
						<path fill="#00569E" d="M72,87.726c-8.714,0-15.804-7.09-15.804-15.804c0-8.715,7.09-15.805,15.804-15.805
							c8.715,0,15.805,7.09,15.805,15.805C87.805,80.636,80.715,87.726,72,87.726z M72,57.491c-7.957,0-14.43,6.474-14.43,14.431
							s6.473,14.43,14.43,14.43s14.431-6.473,14.431-14.43S79.957,57.491,72,57.491z"/>
						<path fill="#00569E" d="M72,56.368c8.577,0,15.554,6.977,15.554,15.554S80.577,87.476,72,87.476
							c-8.576,0-15.554-6.977-15.554-15.554C56.446,63.345,63.424,56.368,72,56.368 M72,86.602c8.094,0,14.68-6.585,14.68-14.68
							c0-8.095-6.585-14.68-14.68-14.68c-8.095,0-14.68,6.585-14.68,14.68C57.32,80.016,63.906,86.602,72,86.602 M72,55.868
							c-8.852,0-16.054,7.202-16.054,16.054c0,8.852,7.202,16.054,16.054,16.054s16.054-7.202,16.054-16.054
							S80.852,55.868,72,55.868L72,55.868z M72,86.102c-7.819,0-14.18-6.361-14.18-14.18s6.361-14.18,14.18-14.18
							s14.18,6.361,14.18,14.18S79.819,86.102,72,86.102L72,86.102z"/>
					</g>
					<g>
						<path fill="#00569E" d="M68.904,87.421c-5.843-1.161-10.619-5.633-12.166-11.394c-0.093-0.344,0.089-0.697,0.422-0.821
							l3.3-1.237c0.218-0.081,0.445-0.122,0.678-0.122c0.395,0,0.774,0.119,1.1,0.343c0.52,0.361,0.83,0.954,0.83,1.586v1.034
							c0,0.93,0.552,1.767,1.406,2.134l2.119,0.908c0.658,0.282,1.247,0.681,1.751,1.186l0.416,0.416
							c1.204,1.201,1.661,2.965,1.193,4.602l-0.252,0.881c-0.083,0.293-0.354,0.498-0.66,0.498L68.904,87.421z M58.24,76.27
							c1.509,4.77,5.462,8.474,10.317,9.666l0.074-0.259c0.33-1.155,0.008-2.401-0.843-3.253l-0.416-0.415
							c-0.381-0.381-0.826-0.682-1.322-0.896l-2.119-0.908c-1.359-0.582-2.238-1.915-2.238-3.396v-1.034
							c0-0.185-0.087-0.351-0.238-0.455c-0.096-0.066-0.204-0.102-0.314-0.102c-0.066,0-0.132,0.013-0.196,0.037L58.24,76.27z"/>
						<path fill="#00569E" d="M61.137,74.097c0.344,0,0.675,0.103,0.957,0.298c0.453,0.314,0.723,0.83,0.723,1.38v1.034
							c0,1.03,0.611,1.957,1.557,2.363l2.119,0.908c0.629,0.27,1.192,0.651,1.673,1.133l0.416,0.416
							c1.139,1.138,1.572,2.808,1.129,4.357l-0.251,0.881c-0.054,0.187-0.226,0.317-0.421,0.317c-0.028,0-0.057-0.003-0.086-0.008
							c-5.753-1.142-10.453-5.543-11.976-11.213c-0.059-0.218,0.057-0.443,0.269-0.523l3.299-1.237
							C60.737,74.133,60.935,74.097,61.137,74.097 M68.732,86.236l0.066-0.231l0.074-0.259c0.355-1.243,0.008-2.584-0.907-3.499
							l-0.416-0.416c-0.403-0.403-0.874-0.722-1.4-0.948l-2.119-0.908c-1.268-0.543-2.087-1.786-2.087-3.166v-1.034
							c0-0.268-0.126-0.509-0.346-0.661c-0.136-0.095-0.294-0.145-0.457-0.145c-0.097,0-0.194,0.018-0.286,0.053l-2.702,1.013
							l-0.222,0.083l0.072,0.226c1.535,4.853,5.557,8.621,10.496,9.834L68.732,86.236 M61.137,73.597
							c-0.262,0-0.519,0.047-0.765,0.138l-3.3,1.237c-0.454,0.171-0.702,0.652-0.576,1.121c1.571,5.852,6.423,10.395,12.361,11.573
							c0.061,0.012,0.123,0.018,0.183,0.018c0.416,0,0.786-0.279,0.901-0.679l0.252-0.881c0.492-1.724,0.011-3.581-1.257-4.848
							L68.52,80.86c-0.526-0.527-1.142-0.944-1.829-1.239l-2.119-0.908c-0.762-0.327-1.255-1.074-1.255-1.903v-1.034
							c0-0.714-0.351-1.384-0.938-1.791C62.013,73.731,61.584,73.597,61.137,73.597L61.137,73.597z M58.552,76.419l2.478-0.929
							c0.037-0.014,0.074-0.021,0.11-0.021c0.061,0,0.119,0.019,0.171,0.055c0.087,0.06,0.132,0.147,0.132,0.251v1.034
							c0,1.58,0.938,3.003,2.39,3.625l2.119,0.908c0.467,0.2,0.885,0.484,1.243,0.842l0.417,0.416
							c0.786,0.786,1.085,1.938,0.779,3.007l-0.007,0.025C63.796,84.422,60.061,80.922,58.552,76.419L58.552,76.419z"/>
					</g>
					<g>
						<path fill="#00569E" d="M56.905,71.798c-0.147,0-0.287-0.046-0.404-0.132c-0.188-0.136-0.293-0.357-0.281-0.591
							c0.278-5.263,3.153-10.021,7.691-12.73c0.106-0.063,0.229-0.098,0.353-0.098c0.209,0,0.403,0.093,0.534,0.256
							c0.655,0.808,1.018,1.82,1.018,2.852v0.895c0,0.957-0.372,1.855-1.048,2.53l-1.98,1.98c-0.189,0.19-0.255,0.467-0.171,0.723
							c0.349,1.041-0.179,2.178-1.199,2.587l-4.26,1.681C57.077,71.782,56.992,71.798,56.905,71.798z M64.064,59.87
							c-3.517,2.316-5.84,6.033-6.375,10.197l3.218-1.275c0.346-0.138,0.524-0.523,0.406-0.877c-0.25-0.751-0.059-1.566,0.501-2.128
							l1.98-1.979c0.418-0.417,0.647-0.971,0.647-1.56v-0.894C64.442,60.843,64.311,60.33,64.064,59.87L64.064,59.87z"/>
						<path fill="#00569E" d="M64.263,58.497c0.132,0,0.256,0.059,0.339,0.162c0.621,0.765,0.963,1.723,0.963,2.696v0.894
							c0,0.89-0.346,1.725-0.975,2.354l-1.981,1.981c-0.256,0.258-0.345,0.632-0.23,0.977c0.306,0.917-0.158,1.917-1.055,2.277
							l-4.259,1.681c-0.052,0.02-0.106,0.03-0.16,0.03c-0.093,0-0.181-0.029-0.256-0.083c-0.12-0.087-0.188-0.228-0.18-0.377
							c0.274-5.178,3.104-9.862,7.57-12.528C64.107,58.519,64.185,58.497,64.263,58.497 M57.387,70.457l0.395-0.156l3.218-1.276
							c0.469-0.187,0.711-0.71,0.551-1.189c-0.221-0.661-0.051-1.378,0.441-1.871l1.98-1.98c0.464-0.464,0.72-1.08,0.72-1.736
							v-0.894c0-0.554-0.141-1.108-0.407-1.603l-0.13-0.241l-0.228,0.15c-3.578,2.358-5.942,6.139-6.485,10.375L57.387,70.457
							 M64.263,57.997c-0.169,0-0.335,0.046-0.48,0.133c-4.61,2.752-7.531,7.586-7.813,12.931c-0.017,0.319,0.128,0.621,0.386,0.808
							c0.16,0.116,0.35,0.178,0.549,0.178c0.115,0,0.228-0.021,0.337-0.062l4.266-1.683c1.145-0.458,1.735-1.732,1.346-2.9
							c-0.054-0.164-0.012-0.343,0.11-0.466l1.98-1.98c0.723-0.723,1.122-1.684,1.122-2.707v-0.894c0-1.088-0.382-2.157-1.075-3.011
							C64.812,58.124,64.547,57.997,64.263,57.997L64.263,57.997z M57.998,69.677c0.609-3.825,2.761-7.232,5.966-9.438
							c0.15,0.355,0.228,0.735,0.228,1.116v0.894c0,0.522-0.204,1.013-0.573,1.382l-1.98,1.98c-0.628,0.628-0.843,1.542-0.562,2.383
							c0.076,0.228-0.039,0.477-0.262,0.566L57.998,69.677L57.998,69.677z"/>
					</g>
					<g>
						<path fill="#00569E" d="M77.828,82.252c-0.173,0-0.308-0.014-0.409-0.026c-0.401-0.012-0.787-0.192-1.095-0.519
							c-0.842-0.898-0.966-2.854-0.922-4.337l0,0c-0.965-0.155-1.858-0.679-2.516-1.475c-0.584-0.704-1.498-1.332-1.991-1.644
							c-0.534-0.337-0.965-0.813-1.246-1.373l-0.793-1.584c-0.222-0.446-0.308-0.937-0.249-1.421
							c0.187-1.568,0.956-3.458,1.569-4.768c0.207-0.439,0.637-0.728,1.122-0.752c0.003,0,0.005,0,0.008,0
							c0.523,0,0.949,0.245,1.185,0.639l0.682,1.136c0.092,0.153,0.241,0.237,0.421,0.237c0.035,0,0.071-0.004,0.106-0.011
							c0.204-0.042,0.33-0.172,0.356-0.369c0.165-1.381,1.01-2.49,2.216-2.973l1.594-0.637c0.764-0.557,0.103-2.933-0.315-3.932
							c-0.095-0.226-0.061-0.487,0.088-0.684c0.129-0.169,0.331-0.27,0.541-0.27l0.255,0.027c0.067,0.01,0.133,0.028,0.196,0.058
							c5.573,2.581,9.174,8.211,9.174,14.344c0,0.215-0.103,0.421-0.274,0.55l-1.502,1.127c-0.36,0.271-0.807,0.419-1.258,0.419
							c-0.135,0-0.271-0.014-0.402-0.04c-0.579-0.114-1.087-0.47-1.391-0.976l-0.373-0.623l-0.984,4.43
							c-0.012,2.213-0.568,3.79-1.652,4.686C79.208,82.12,78.385,82.252,77.828,82.252z M77.635,80.867
							c0.015,0.003,0.091,0.014,0.206,0.014c0.271,0,0.795-0.06,1.269-0.46c0.743-0.629,1.137-1.905,1.137-3.689V76.7l0.019-0.124
							l1.141-5.139c0.101-0.448,0.457-0.784,0.907-0.857c0.062-0.01,0.122-0.015,0.183-0.015c0.392,0,0.746,0.202,0.949,0.541
							l0.712,1.187c0.105,0.178,0.275,0.297,0.478,0.336c0.048,0.01,0.095,0.014,0.14,0.014c0.154,0,0.303-0.05,0.431-0.145
							l1.222-0.917c-0.117-4.933-2.834-9.563-7.091-12.085v0.001c0.504,2.047,0.23,3.458-0.792,4.079l-0.101,0.05l-1.659,0.664
							c-0.739,0.295-1.256,0.974-1.35,1.772l-0.015,0.112c-0.105,0.769-0.671,1.368-1.44,1.525c-0.125,0.025-0.257,0.039-0.39,0.039
							c-0.658,0-1.254-0.338-1.594-0.903l-0.623-1.039c-0.449,0.973-1.23,2.816-1.401,4.24c-0.025,0.219,0.015,0.441,0.115,0.644
							l0.792,1.584c0.168,0.337,0.428,0.622,0.752,0.826c0.687,0.434,1.646,1.12,2.314,1.931c0.539,0.65,1.291,1.023,2.062,1.023
							c0.22,0,0.432,0.091,0.582,0.25c0.149,0.16,0.227,0.376,0.214,0.592c-0.117,1.799,0.104,3.431,0.525,3.881
							c0.083,0.089,0.14,0.102,0.188,0.102l0.041-0.007L77.635,80.867z"/>
						<path fill="#00569E" d="M78.18,57.742c0.02,0,0.04,0.001,0.062,0.005l0.16,0.022c0.042,0.005,0.085,0.018,0.126,0.037
							c5.484,2.539,9.027,8.08,9.027,14.117c0,0.137-0.065,0.268-0.175,0.35l-1.502,1.127c-0.317,0.238-0.71,0.368-1.107,0.368
							c-0.118,0-0.237-0.012-0.353-0.034c-0.511-0.101-0.958-0.414-1.225-0.86l-0.374-0.622l-0.323-0.538l-0.136,0.612l-0.984,4.429
							L81.37,76.78l0,0.027c-0.012,2.136-0.537,3.648-1.562,4.494c-0.702,0.58-1.464,0.701-1.98,0.701
							c-0.16,0-0.284-0.012-0.379-0.024c-0.356-0.012-0.682-0.165-0.942-0.441c-0.825-0.88-0.89-2.983-0.855-4.159l0.007-0.219
							l-0.217-0.035c-0.905-0.146-1.744-0.638-2.363-1.387c-0.606-0.732-1.544-1.376-2.05-1.695
							c-0.496-0.313-0.896-0.754-1.157-1.275l-0.792-1.584c-0.199-0.399-0.278-0.841-0.226-1.278
							c0.183-1.534,0.943-3.398,1.549-4.691c0.167-0.356,0.514-0.589,0.908-0.609l0.062-0.002c0.365,0,0.711,0.199,0.903,0.519
							l0.682,1.137c0.136,0.227,0.367,0.358,0.635,0.358c0.055,0,0.108-0.006,0.158-0.016c0.305-0.062,0.512-0.278,0.553-0.58
							l0.011-0.082c0.144-1.212,0.929-2.244,2.05-2.692l1.593-0.637l0.029-0.012l0.025-0.018c0.962-0.701,0.134-3.356-0.232-4.231
							c-0.06-0.144-0.039-0.311,0.057-0.435C77.919,57.806,78.047,57.742,78.18,57.742 M73.588,67.49
							c-0.569,0-1.084-0.292-1.378-0.782l-0.623-1.038l-0.243-0.405l-0.198,0.429c-0.456,0.987-1.248,2.859-1.422,4.314
							c-0.032,0.267,0.016,0.539,0.139,0.785l0.792,1.584c0.189,0.378,0.48,0.698,0.841,0.926c0.672,0.424,1.609,1.094,2.256,1.878
							c0.587,0.708,1.408,1.114,2.253,1.114c0.152,0,0.297,0.063,0.4,0.172c0.102,0.109,0.155,0.256,0.146,0.405
							c-0.103,1.599,0.04,3.476,0.593,4.067c0.116,0.123,0.233,0.181,0.369,0.181l0.068-0.004l0.012-0.001
							c0.017,0.003,0.108,0.016,0.247,0.016c0.305,0,0.896-0.067,1.43-0.519c0.802-0.678,1.225-2.019,1.225-3.88
							c0-0.032,0.004-0.063,0.011-0.095l1.143-5.146c0.077-0.346,0.353-0.607,0.703-0.664c0.048-0.008,0.095-0.011,0.142-0.011
							c0.303,0,0.578,0.156,0.734,0.418l0.713,1.188c0.143,0.239,0.372,0.399,0.645,0.452c0.063,0.012,0.125,0.018,0.188,0.018
							c0.209,0,0.409-0.067,0.579-0.193l1.223-0.917l0.103-0.077l-0.003-0.129c-0.12-5.019-2.884-9.73-7.214-12.294l-0.513-0.304
							l0.143,0.579c0.332,1.346,0.484,3.099-0.679,3.805c-0.021,0.013-0.043,0.024-0.066,0.033l-1.657,0.662
							c-0.824,0.33-1.401,1.088-1.505,1.976l-0.014,0.107c-0.091,0.663-0.579,1.179-1.243,1.315
							C73.815,67.478,73.701,67.49,73.588,67.49 M78.18,57.242c-0.288,0-0.564,0.138-0.74,0.368
							c-0.203,0.265-0.249,0.622-0.12,0.931c0.506,1.21,0.912,3.196,0.42,3.618l-1.56,0.624c-1.291,0.517-2.196,1.703-2.361,3.097
							l-0.01,0.076c-0.008,0.06-0.034,0.129-0.158,0.154c-0.017,0.004-0.037,0.006-0.058,0.006c-0.091,0-0.16-0.039-0.206-0.115
							l-0.683-1.138c-0.281-0.47-0.792-0.761-1.332-0.761l-0.077,0.002c-0.588,0.03-1.1,0.373-1.345,0.896
							c-0.621,1.327-1.402,3.244-1.593,4.844c-0.064,0.534,0.031,1.073,0.275,1.561l0.792,1.585
							c0.302,0.602,0.764,1.112,1.337,1.474c0.481,0.303,1.37,0.913,1.932,1.591c0.647,0.783,1.512,1.317,2.453,1.521
							c-0.027,1.5,0.135,3.385,0.995,4.302c0.352,0.375,0.798,0.582,1.29,0.599c0.067,0.01,0.21,0.024,0.396,0.024
							c0.598,0,1.483-0.142,2.299-0.816c1.139-0.942,1.726-2.573,1.743-4.85l0.843-3.792l0.051,0.086
							c0.34,0.567,0.908,0.965,1.557,1.093c0.148,0.029,0.299,0.044,0.449,0.044c0.504,0,1.003-0.166,1.406-0.468l1.502-1.127
							c0.235-0.176,0.375-0.456,0.375-0.75c0-6.231-3.657-11.95-9.317-14.57c-0.089-0.041-0.18-0.067-0.272-0.079l-0.157-0.021
							C78.264,57.245,78.222,57.242,78.18,57.242L78.18,57.242z M73.588,67.99c0.146,0,0.294-0.015,0.439-0.044
							c0.876-0.179,1.519-0.861,1.639-1.737l0.015-0.109c0.084-0.714,0.542-1.316,1.195-1.577l1.657-0.662
							c0.047-0.019,0.093-0.042,0.136-0.067c0.73-0.444,1.465-1.455,1.035-3.772c3.861,2.511,6.316,6.833,6.468,11.439l-1.119,0.839
							c-0.083,0.062-0.177,0.094-0.279,0.094c-0.031,0-0.062-0.003-0.092-0.009c-0.133-0.026-0.241-0.101-0.311-0.219l-0.712-1.188
							c-0.248-0.414-0.683-0.661-1.163-0.661c-0.073,0-0.147,0.006-0.222,0.018c-0.553,0.09-0.989,0.502-1.111,1.049l-1.143,5.146
							c-0.015,0.065-0.023,0.134-0.023,0.203c0,1.684-0.372,2.926-1.048,3.498c-0.413,0.349-0.871,0.401-1.107,0.401
							c-0.098,0-0.161-0.009-0.174-0.011l-0.062-0.009l-0.062,0.006l-0.009,0c-0.346-0.382-0.609-1.784-0.484-3.713
							c0.018-0.286-0.084-0.57-0.28-0.78c-0.197-0.21-0.475-0.33-0.765-0.33c-0.696,0-1.377-0.34-1.869-0.933
							c-0.689-0.834-1.672-1.538-2.375-1.981c-0.284-0.18-0.513-0.431-0.661-0.727l-0.792-1.585c-0.079-0.158-0.11-0.332-0.09-0.502
							c0.144-1.199,0.739-2.721,1.184-3.731l0.378,0.629C72.166,67.607,72.842,67.99,73.588,67.99L73.588,67.99z"/>
					</g>
				</g>
				<g>
					<path fill="#00569E" stroke="#00569E" stroke-width="0.5359" stroke-miterlimit="10" d="M72.108,49.414
						c0.258,0,0.468,0.21,0.468,0.468c0,0.258-0.21,0.468-0.468,0.468c-0.718,0-1.445,0.037-2.209,0.113
						c-0.241,0-0.441-0.181-0.465-0.42c-0.026-0.257,0.161-0.488,0.418-0.514C70.596,49.453,71.355,49.414,72.108,49.414"/>
				</g>
				<g>
					<path fill="#00569E" stroke="#00569E" stroke-width="0.5359" stroke-miterlimit="10" d="M50.778,70.012
						c0.258,0.009,0.461,0.227,0.453,0.484c-0.009,0.248-0.013,0.497-0.013,0.746c0,1.176,0.099,2.357,0.294,3.511
						c0.043,0.255-0.129,0.497-0.385,0.54c-0.026,0.005-0.052,0.006-0.078,0.006c-0.229,0-0.423-0.164-0.461-0.39
						c-0.203-1.205-0.306-2.439-0.306-3.668c0-0.26,0.004-0.519,0.014-0.778c0.009-0.25,0.214-0.453,0.456-0.453L50.778,70.012z"/>
				</g>
				<g>
					<path fill="#00569E" stroke="#00569E" stroke-width="0.5359" stroke-miterlimit="10" d="M52.214,78.565
						c0.194,0,0.365,0.117,0.436,0.298c0.518,1.322,1.176,2.598,1.956,3.79c0.141,0.216,0.08,0.507-0.134,0.647
						c-0.078,0.05-0.167,0.077-0.258,0.077c-0.159,0-0.306-0.079-0.393-0.212c-0.814-1.247-1.502-2.579-2.043-3.96
						c-0.046-0.117-0.043-0.244,0.007-0.359c0.05-0.115,0.142-0.203,0.259-0.248C52.099,78.576,52.156,78.565,52.214,78.565"/>
				</g>
				<g>
					<path fill="#00569E" stroke="#00569E" stroke-width="0.5359" stroke-miterlimit="10" d="M52.822,61.585
						c0.07,0,0.137,0.015,0.201,0.046c0.113,0.054,0.198,0.149,0.24,0.266c0.042,0.118,0.035,0.245-0.019,0.358
						c-0.612,1.282-1.094,2.633-1.432,4.017c-0.052,0.211-0.239,0.358-0.455,0.358c-0.038,0-0.076-0.005-0.112-0.013
						c-0.251-0.061-0.405-0.315-0.344-0.566c0.352-1.444,0.856-2.857,1.496-4.198C52.476,61.69,52.642,61.585,52.822,61.585"/>
				</g>
				<g>
					<path fill="#00569E" stroke="#00569E" stroke-width="0.5359" stroke-miterlimit="10" d="M58.069,54.676
						c0.135,0,0.264,0.059,0.353,0.161c0.17,0.195,0.15,0.491-0.045,0.661c-1.073,0.936-2.053,1.985-2.912,3.116
						c-0.09,0.118-0.227,0.186-0.374,0.186c-0.103,0-0.2-0.033-0.283-0.096c-0.1-0.075-0.164-0.185-0.181-0.309
						c-0.017-0.124,0.015-0.247,0.091-0.347c0.899-1.183,1.923-2.279,3.042-3.256C57.847,54.717,57.956,54.676,58.069,54.676"/>
				</g>
				<g>
					<path fill="#00569E" stroke="#00569E" stroke-width="0.5359" stroke-miterlimit="10" d="M65.626,50.415
						c0.205,0,0.385,0.131,0.447,0.326c0.038,0.119,0.027,0.246-0.031,0.357c-0.057,0.111-0.155,0.193-0.274,0.231
						c-1.355,0.431-2.67,1.004-3.91,1.704c-0.071,0.04-0.15,0.061-0.229,0.061c-0.169,0-0.326-0.091-0.409-0.238
						c-0.127-0.225-0.047-0.512,0.177-0.639c1.297-0.732,2.672-1.331,4.086-1.781C65.531,50.422,65.579,50.415,65.626,50.415"/>
				</g>
				<g>
					<path fill="#00569E" stroke="#00569E" stroke-width="0.5359" stroke-miterlimit="10" d="M56.958,85.829
						c0.126,0,0.244,0.049,0.332,0.138c1.005,1.011,2.115,1.921,3.298,2.704c0.215,0.143,0.274,0.434,0.131,0.65
						c-0.086,0.131-0.232,0.21-0.39,0.21c-0.092,0-0.181-0.027-0.258-0.078c-1.235-0.818-2.395-1.769-3.445-2.825
						c-0.182-0.183-0.181-0.481,0.002-0.663C56.716,85.877,56.833,85.829,56.958,85.829"/>
				</g>
				<g>
					<path fill="#00569E" stroke="#00569E" stroke-width="0.5359" stroke-miterlimit="10" d="M83.156,89.056
						c0.166,0,0.316,0.085,0.402,0.226c0.134,0.221,0.063,0.51-0.158,0.644c-0.64,0.388-1.309,0.747-1.988,1.067
						c-0.065,0.03-0.132,0.046-0.201,0.046c-0.18,0-0.347-0.106-0.424-0.269c-0.11-0.233-0.01-0.513,0.224-0.623
						c0.654-0.309,1.294-0.652,1.903-1.022C82.987,89.08,83.071,89.056,83.156,89.056"/>
				</g>
				<g>
					<path fill="#00569E" d="M85.86,88.082l-0.117-0.257l-0.245-0.133l-1.162-0.697l0.555-0.474l1.038,0.354l1.471-1.453
						c-0.077-0.061-2.331-1.417-2.331-1.417l-0.306-0.184l0.681-0.633l3.127,1.069l1.175-1.16c0.116-0.127,0.294-0.206,0.479-0.206
						c0.097,0,0.19,0.021,0.278,0.062c0.2,0.097,0.352,0.261,0.432,0.464l0.018,0.047v0.061c0.077,0.178-0.01,0.474-0.231,0.647
						l-1.222,1.08l0.842,3.209l-0.681,0.635l-1.393-2.758c-0.069,0.051-1.563,1.36-1.563,1.36l0.281,1.078l-0.523,0.489
						L85.86,88.082z"/>
					<g>
						<path fill="#00569E" d="M90.224,83.16c0.056,0,0.113,0.012,0.166,0.037c0.135,0.065,0.24,0.179,0.295,0.318l0,0.009
							c0.055,0.158,0.003,0.334-0.129,0.437l-1.235,1.089c-0.079,0.068-0.112,0.176-0.085,0.276l0.805,3.048l-0.302,0.282
							l-1.232-2.44c-0.048-0.096-0.145-0.151-0.245-0.151c-0.041,0-0.083,0.009-0.122,0.029c-0.002,0.001-0.004,0.002-0.006,0.003
							c-0.021,0.011-1.606,1.399-1.606,1.399c-0.078,0.069-0.11,0.176-0.083,0.276l0.242,0.916l-0.146,0.136l-0.44-0.865
							l-0.112-0.247c-0.025-0.055-0.068-0.101-0.122-0.129l-0.241-0.129l-0.832-0.499l0.156-0.132l0.893,0.305
							c0.029,0.01,0.059,0.015,0.088,0.015c0.077,0,0.153-0.033,0.206-0.093l1.453-1.438c0.109-0.104,0.114-0.277,0.01-0.387
							c-0.002-0.003-0.005-0.005-0.008-0.008c-0.02-0.02-2.384-1.442-2.384-1.442l0.302-0.282l2.975,1.018
							c0.029,0.01,0.059,0.015,0.089,0.015c0.078,0,0.153-0.033,0.206-0.093l1.156-1.145C90.01,83.205,90.116,83.16,90.224,83.16
							 M90.224,82.624c-0.261,0-0.511,0.111-0.687,0.304l-1.035,1.024l-2.821-0.965l-0.304-0.104l-0.235,0.219l-0.302,0.282
							l-0.52,0.485l0.609,0.366c0.655,0.394,1.564,0.942,2.043,1.233l-1.113,1.101l-0.738-0.252l-0.288-0.098l-0.232,0.197
							l-0.156,0.132l-0.569,0.484l0.64,0.384l0.832,0.499l0.187,0.101l0.075,0.166l0.45,0.886l0.323,0.634l0.521-0.485l0.146-0.136
							l0.234-0.219l-0.082-0.31l-0.201-0.76c0.382-0.334,0.873-0.763,1.179-1.03l1.078,2.135l0.322,0.637l0.522-0.487l0.302-0.282
							l0.235-0.219l-0.082-0.31l-0.764-2.891l1.115-0.983c0.259-0.202,0.384-0.56,0.312-0.902l0.001-0.032l-0.039-0.11
							c-0.104-0.266-0.303-0.482-0.561-0.606C90.493,82.653,90.361,82.624,90.224,82.624L90.224,82.624z"/>
					</g>
				</g>
			</g>
		</g>
	</g>
</g>
<g id="Capa_3">
</g>
</svg>
