<?xml version="1.0" encoding="utf-8"?>
<!-- Generator: Adobe Illustrator 24.2.1, SVG Export Plug-In . SVG Version: 6.00 Build 0)  -->
<svg version="1.1" xmlns="http://www.w3.org/2000/svg" xmlns:xlink="http://www.w3.org/1999/xlink" x="0px" y="0px"
	 viewBox="0 0 144 144" enable-background="new 0 0 144 144" xml:space="preserve">
<g id="Capa_1">
	<g>
		<g>
			
				<linearGradient id="SVGID_5_" gradientUnits="userSpaceOnUse" x1="69.906" y1="30.6509" x2="184.845" y2="30.6509" gradientTransform="matrix(0 -1 1 0 41.3491 199.3755)">
				<stop  offset="0.2374" style="stop-color:#FFFFFF;stop-opacity:0"/>
				<stop  offset="0.4859" style="stop-color:#C5F9FF;stop-opacity:0.3369"/>
				<stop  offset="0.7053" style="stop-color:#99F5FF;stop-opacity:0.6345"/>
				<stop  offset="0.8752" style="stop-color:#7EF2FF;stop-opacity:0.8649"/>
				<stop  offset="0.9749" style="stop-color:#74F1FF"/>
			</linearGradient>
			<circle fill="url(#SVGID_5_)" cx="72" cy="72" r="57.47"/>
		</g>
		<path fill="#FFFFFF" d="M92.026,24.823H51.974c-3.61,0-6.547,3.144-6.547,7.009v73.095v0.385v7.317
			c0,3.61,2.937,6.547,6.547,6.547h40.052c3.61,0,6.547-2.937,6.547-6.547v-4.621v-3.081V54.693v-5.607V31.832
			C98.573,27.967,95.636,24.823,92.026,24.823z"/>
		<g>
			<polygon fill="#FF698B" points="75.294,88.337 73.667,90.229 70.936,90.229 69.305,88.337 72.301,87.064 			"/>
			<path fill="#FF698B" d="M74.334,96.063c-0.638,1.606-2.005,5.09-2.005,5.09s-1.531-3.558-2.141-5.09l-0.042-0.109l0.98-5.17h2.27
				l0.98,5.17L74.334,96.063z"/>
			<circle fill="#00C0DB" cx="84.952" cy="92.591" r="3.543"/>
			<path fill="none" d="M66.846,75.306l0.061,0.049c1.615,1.193,3.418,1.799,5.357,1.799c1.936,0,3.744-0.611,5.377-1.816
				c0.013-0.011,0.029-0.023,0.063-0.048c0.78-0.589,1.507-1.309,2.158-2.138c1.683-2.14,2.591-4.714,2.591-6.048V64.37
				l-0.413,0.125c-0.202,0.059-0.418,0.047-0.608-0.032c-0.34-0.141-0.559-0.47-0.559-0.839v-8.092c0-1.162-0.946-2.108-2.108-2.108
				h-2.418c-0.508,0-1.004,0.178-1.397,0.502l-0.23,0.19c-0.695,0.565-1.567,0.876-2.456,0.876c-0.892,0-1.764-0.311-2.456-0.876
				l-0.239-0.195c-0.393-0.321-0.889-0.497-1.397-0.497h-2.412c-1.161,0-2.105,0.944-2.105,2.105v8.067
				c0,0.284-0.109,0.542-0.3,0.707c-0.24,0.209-0.565,0.281-0.869,0.192l-0.413-0.125v2.735c0,1.333,0.909,3.905,2.594,6.048h0
				C65.319,73.984,66.052,74.709,66.846,75.306z"/>
			<polygon fill="none" points="71.078,89.938 73.448,89.938 74.813,88.351 72.263,87.266 69.71,88.351 			"/>
			<path fill="none" d="M59.788,63.562c-0.123,0-0.238-0.028-0.34-0.082l-0.172-0.089l-0.07,0.178
				c-0.049,0.124-0.075,0.249-0.075,0.374v1.334c0,0.562,0.457,1.018,1.018,1.018h0.664v-2.582l-0.13-0.033
				C60.311,63.588,59.991,63.565,59.788,63.562z"/>
			<path fill="none" d="M85.542,65.277v-1.334c0-0.14-0.029-0.285-0.086-0.431l-0.132-0.331l-0.317,0.168
				c-0.079,0.041-0.179,0.065-0.277,0.065l-0.056,0.001c-0.139,0.006-0.465,0.022-0.868,0.121l-0.245,0.063v2.845h0.815
				C85.019,66.443,85.542,65.92,85.542,65.277z"/>
			<path fill="none" d="M62.544,63.136v-7.605c0-1.773,1.442-3.215,3.215-3.215h2.421c0.767,0,1.514,0.269,2.106,0.756l0.224,0.185
				c0.982,0.802,2.522,0.802,3.505,0l0.239-0.195c0.59-0.481,1.334-0.746,2.096-0.746h2.417c1.773,0,3.215,1.442,3.215,3.215v7.605
				l0.472-0.259c0.092-0.046,0.178-0.087,0.29-0.141c0.018-0.012,0.044-0.022,0.084-0.038c0.352-0.146,0.721-0.252,1.101-0.316
				l0.266-0.048v-9.362c0-3.016-2.454-5.471-5.471-5.471H65.8c-3.016,0-5.471,2.454-5.471,5.471v9.362l0.267,0.048
				c0.385,0.066,0.758,0.174,1.108,0.322c0.029,0.01,0.056,0.02,0.108,0.049c0.081,0.036,0.168,0.078,0.255,0.123L62.544,63.136z"/>
			<path fill="#C4F1FF" d="M68.862,52.882c0,0-0.886,0.59-0.886,7.086s-0.034,16.966,9.43,15.716c0,0-1.164,2.293-7.364,1.702
				s-8.266-8.857-8.562-10.924c-0.295-2.067,0-2.952,0-2.952s0.886,1.181,1.476,0.59c0.59-0.59,0-8.857,0-8.857
				S62.958,51.701,68.862,52.882z"/>
			<path fill="#00569E" stroke="#00569E" stroke-width="0.5" stroke-miterlimit="10" d="M47.98,106.606
				c0.204,0,0.369-0.165,0.369-0.369v-11c0.089-7.548,6.7-11.002,10.633-12.389l0.098-0.035v2.852l-0.385,0.07
				c-1.373,0.252-2.513,1.195-2.976,2.459c-0.127,0.34-0.206,0.699-0.235,1.067l-0.638,8.193c-0.037,0.489,0.131,0.973,0.462,1.329
				c0.332,0.36,0.803,0.567,1.292,0.567h1.092c0.131,0,0.255-0.065,0.332-0.173c0.078-0.109,0.096-0.246,0.051-0.376
				c-0.054-0.157-0.223-0.266-0.409-0.266h-1.066c-0.261,0-0.514-0.111-0.695-0.304c-0.179-0.196-0.269-0.456-0.247-0.715
				l0.638-8.192c0.025-0.298,0.087-0.583,0.184-0.846c0.435-1.185,1.608-1.987,2.918-1.997h0.145c1.286,0,2.425,0.728,2.902,1.855
				c0.133,0.315,0.215,0.648,0.242,0.988l0.638,8.193c0.022,0.259-0.068,0.519-0.246,0.714c-0.181,0.194-0.434,0.304-0.695,0.304
				h-1.066c-0.187,0-0.355,0.11-0.409,0.266c-0.045,0.13-0.027,0.267,0.051,0.376c0.077,0.108,0.201,0.173,0.332,0.173h1.092
				c0.489,0,0.96-0.206,1.292-0.567c0.33-0.356,0.499-0.84,0.462-1.329l-0.638-8.195c-0.035-0.432-0.138-0.85-0.304-1.24
				c-0.506-1.201-1.596-2.056-2.915-2.289l-0.389-0.066v-3.001l3.732-1.126l0.175,0.364c0.37,0.784,1.029,2.355,1.906,4.542
				c1.421,3.56,3.079,7.886,3.726,9.581c0.012,0.032,0.015,0.044,0.021,0.053c0.781,2.043,1.618,4.255,2.427,6.407
				c0.06,0.158,0.214,0.265,0.383,0.265c0.167,0,0.319-0.107,0.38-0.265c0.79-2.104,1.626-4.309,2.418-6.377l0.024-0.066
				c1.539-4.024,2.76-7.162,3.732-9.592c0.88-2.196,1.539-3.769,1.906-4.548l0.175-0.365l3.732,1.126v5.914l-0.378,0.074
				c-2.095,0.404-3.526,2.384-3.258,4.508c0.248,1.967,1.933,3.491,3.92,3.545c1.107,0.036,2.152-0.379,2.946-1.152
				c0.794-0.773,1.232-1.807,1.232-2.912c0-1.933-1.374-3.61-3.268-3.987l-0.378-0.077V82.83l0.098,0.035
				c3.889,1.377,10.435,4.802,10.577,12.276v11.199c0,0.204,0.166,0.37,0.37,0.37s0.37-0.166,0.37-0.37v-10.95
				c0-0.082,0-0.164-0.003-0.245v-0.001c-0.143-8.045-7.185-11.644-11.37-13.072l-0.046-0.016l-0.028-0.317
				c-0.14-1.66-0.808-3.188-1.932-4.421c-0.89-0.972-2.02-1.694-3.268-2.087l-0.694-0.221l0.487-0.543
				c0.211-0.234,0.415-0.478,0.608-0.723c1.709-2.169,2.537-4.489,2.743-5.937l0.06-0.403h0.958c1.176,0,2.129-0.953,2.129-2.129
				v-1.334c0-0.767-0.424-1.48-1.108-1.86l-0.242-0.137v-8.974c0-3.551-2.879-6.43-6.43-6.43H65.797c-3.551,0-6.43,2.879-6.43,6.43
				v8.974l-0.241,0.136c-0.682,0.379-1.105,1.092-1.105,1.861v1.334c0,1.176,0.953,2.129,2.129,2.129h0.959l0.056,0.403
				c0.209,1.45,1.04,3.771,2.745,5.937c0.166,0.215,0.358,0.444,0.605,0.723l0.49,0.539l-0.697,0.221
				c-2.899,0.924-4.941,3.479-5.201,6.511l-0.021,0.296l-0.046,0.016c-4.231,1.433-11.341,5.051-11.428,13.187v10.999
				C47.611,106.441,47.776,106.606,47.98,106.606L47.98,106.606z M83.414,63.484l0.357-0.091c0.418-0.102,0.766-0.119,0.897-0.125
				l0.063-0.001c0.073,0,0.151-0.018,0.208-0.048l0.462-0.245l0.193,0.484c0.064,0.164,0.097,0.327,0.097,0.485v1.334
				c0,0.724-0.589,1.314-1.314,1.314h-0.962 M60.961,66.443H60.15c-0.643,0-1.166-0.523-1.166-1.166v-1.334
				c0-0.144,0.029-0.288,0.085-0.429l0.13-0.33l0.318,0.164c0.082,0.044,0.174,0.066,0.273,0.066
				c0.211,0.003,0.543,0.027,0.93,0.123l0.242,0.061V66.443z M61.656,62.844l-0.006-0.002c-0.341-0.144-0.704-0.25-1.079-0.314
				l-0.389-0.07v-9.485c0-3.098,2.52-5.618,5.618-5.618h12.925c3.098,0,5.618,2.52,5.618,5.618v9.485l-0.388,0.07
				c-0.37,0.063-0.729,0.165-1.065,0.305c-0.037,0.014-0.056,0.021-0.075,0.033c-0.119,0.057-0.204,0.098-0.293,0.142l-0.688,0.378
				v-7.854c0-1.691-1.376-3.067-3.067-3.067h-2.417c-0.728,0-1.439,0.253-2.003,0.713l-0.239,0.195
				c-1.035,0.845-2.657,0.844-3.692,0l-0.224-0.185c-0.565-0.466-1.279-0.723-2.012-0.723h-2.421c-1.691,0-3.067,1.376-3.067,3.067
				v7.854l-0.694-0.379c-0.083-0.043-0.167-0.084-0.252-0.121C61.699,62.859,61.679,62.851,61.656,62.844z M64.549,73.244
				c-1.705-2.169-2.626-4.782-2.626-6.139v-2.934l0.603,0.182c0.254,0.074,0.528,0.013,0.73-0.162
				c0.158-0.137,0.249-0.354,0.249-0.596v-8.067c0-1.242,1.011-2.253,2.253-2.253h2.412c0.541,0,1.071,0.188,1.49,0.53l0.239,0.195
				c0.665,0.543,1.504,0.843,2.363,0.843c0.855,0,1.694-0.299,2.362-0.843l0.23-0.19c0.419-0.345,0.948-0.535,1.491-0.535h2.418
				c1.244,0,2.255,1.012,2.255,2.255v8.092c0,0.309,0.184,0.584,0.468,0.702c0.16,0.066,0.34,0.076,0.509,0.027l0.602-0.182v2.934
				c0,1.359-0.919,3.973-2.623,6.139c-0.659,0.84-1.395,1.568-2.186,2.166c-0.032,0.023-0.046,0.034-0.06,0.046
				c-1.66,1.226-3.499,1.847-5.467,1.847c-1.971,0-3.804-0.616-5.447-1.83l-0.061-0.049C65.953,74.819,65.211,74.086,64.549,73.244z
				 M65.855,81.351l0.298-0.378c0.493-0.629,0.787-1.449,0.787-2.192v-2.199l0.693,0.375c1.43,0.768,2.988,1.157,4.63,1.157
				c1.642,0,3.199-0.389,4.63-1.157l0.693-0.375v2.199c0,0.744,0.294,1.563,0.787,2.192l0.298,0.378l-6.408,4.79L65.855,81.351z
				 M75.057,88.294l-1.54,1.791H71.01l-1.544-1.791l2.797-1.188L75.057,88.294z M63.704,80.662l-3.829,1.154l0.027-0.151
				l0.127-0.616c0.558-2.748,2.792-4.872,5.559-5.283l0.536-0.081v3.097c0,0.637-0.275,1.335-0.719,1.821l-0.217,0.235l-0.297-0.112
				C64.513,80.58,64.091,80.557,63.704,80.662z M65.667,84.176l-1.197-2.845l6.984,5.22l-4.132,1.754L65.667,84.176z M68.438,91.166
				c-0.227-0.583-0.444-1.141-0.654-1.677l-0.165-0.427l1.063-0.45l1.706,1.984l-0.697,3.818L68.438,91.166z M74.23,96.002
				c-0.585,1.526-1.836,4.836-1.836,4.836l-0.066,0.174l-0.071-0.172c-0.014-0.034-1.409-3.398-1.961-4.838l-0.046-0.123
				l0.912-4.993h2.202l0.912,4.993L74.23,96.002z M76.742,89.489c-0.2,0.509-0.406,1.039-0.621,1.591l-1.286,3.332l-0.697-3.818
				l1.706-1.984l1.063,0.454L76.742,89.489z M79.31,83.093l-2.106,5.212l-4.132-1.754l7.002-5.235L79.31,83.093z M84.535,81.78
				l-3.696-1.113c-0.392-0.111-0.82-0.091-1.204,0.057l-0.298,0.112l-0.214-0.235c-0.445-0.484-0.722-1.182-0.722-1.821v-3.097
				l0.536,0.081c2.78,0.409,5.015,2.533,5.562,5.284l0.151,0.752L84.535,81.78z M85.579,89.432c1.34,0.223,2.431,1.315,2.654,2.654
				c0.176,1.057-0.154,2.095-0.905,2.847c-0.621,0.622-1.437,0.957-2.299,0.957c-0.182,0-0.367-0.015-0.552-0.045
				c-1.343-0.221-2.435-1.314-2.656-2.656c-0.174-1.06,0.158-2.099,0.911-2.852C83.484,89.585,84.521,89.255,85.579,89.432z"/>
			<g>
				<path fill="#00569E" d="M51.846,119.729c-3.771,0-6.839-3.068-6.839-6.839V31.575c0-4.027,3.068-7.305,6.839-7.305h40.309
					c3.771,0,6.839,3.277,6.839,7.305v81.314c0,3.771-3.068,6.839-6.839,6.839H51.846z M46.282,112.89
					c0,3.068,2.496,5.564,5.564,5.564h40.309c3.068,0,5.564-2.496,5.564-5.564v-5.563H46.282V112.89z M97.718,106.051V35.592H46.282
					v70.459H97.718z M97.718,34.131v-2.556c0-3.222-2.496-5.843-5.564-5.843H51.846c-3.068,0-5.564,2.621-5.564,5.843v2.556H97.718z
					"/>
				<path fill="#00569E" d="M92.154,24.521c3.633,0,6.589,3.164,6.589,7.054v17.364v5.643v50.556v3.101v4.651
					c0,3.633-2.956,6.589-6.589,6.589H51.846c-3.633,0-6.589-2.956-6.589-6.589v-7.364v-0.388V31.575
					c0-3.89,2.956-7.054,6.589-7.054H92.154 M46.032,34.381h1.163h49.611h1.163v-1.163v-1.643c0-3.36-2.608-6.093-5.814-6.093
					H51.846c-3.206,0-5.814,2.733-5.814,6.093v1.643V34.381 M46.032,106.301h1.163h49.611h1.163v-1.163V54.582v-5.643V36.505v-1.163
					h-1.163H47.195h-1.163v1.163v68.633V106.301 M51.846,118.704h40.309c3.206,0,5.814-2.608,5.814-5.814v-4.651v-1.163h-1.163
					H47.195h-1.163v1.163v4.651C46.032,116.096,48.64,118.704,51.846,118.704 M92.154,24.021H51.846
					c-3.909,0-7.089,3.389-7.089,7.554v73.563v0.388v7.364c0,3.909,3.18,7.089,7.089,7.089h40.309c3.909,0,7.089-3.18,7.089-7.089
					v-4.651v-3.101V54.582v-5.643V31.575C99.243,27.41,96.063,24.021,92.154,24.021L92.154,24.021z M46.532,33.881v-0.663v-1.643
					c0-3.084,2.384-5.593,5.314-5.593h40.309c2.93,0,5.314,2.509,5.314,5.593v1.643v0.663h-0.663H47.195H46.532L46.532,33.881z
					 M46.532,35.842h0.663h49.611h0.663v0.663v12.434v5.643v50.556v0.663h-0.663H47.195h-0.663v-0.663V36.505V35.842L46.532,35.842z
					 M46.532,107.576h0.663h49.611h0.663v0.663v4.651c0,2.93-2.384,5.314-5.314,5.314H51.846c-2.93,0-5.314-2.384-5.314-5.314
					v-4.651V107.576L46.532,107.576z"/>
			</g>
			<g>
				<path fill="#00569E" d="M67.517,31.163c-0.332,0-0.602-0.27-0.602-0.601v-0.34c0-0.332,0.27-0.602,0.602-0.602h5.896
					c0.332,0,0.601,0.27,0.601,0.602v0.34c0,0.331-0.27,0.601-0.601,0.601H67.517z"/>
				<path fill="#00569E" d="M73.413,29.872c0.194,0,0.351,0.157,0.351,0.351v0.339c0,0.194-0.157,0.351-0.351,0.351h-5.896
					c-0.194,0-0.351-0.157-0.351-0.351v-0.339c0-0.194,0.157-0.351,0.351-0.351H73.413 M73.413,29.372h-5.896
					c-0.469,0-0.851,0.382-0.851,0.851v0.339c0,0.469,0.382,0.851,0.851,0.851h5.896c0.469,0,0.851-0.382,0.851-0.851v-0.339
					C74.265,29.754,73.883,29.372,73.413,29.372L73.413,29.372z"/>
			</g>
			<g>
				<path fill="#00569E" d="M75.647,31.163c-0.425,0-0.771-0.346-0.771-0.771c0-0.426,0.346-0.771,0.771-0.771
					s0.771,0.346,0.771,0.771C76.418,30.818,76.072,31.163,75.647,31.163z"/>
				<path fill="#00569E" d="M75.647,29.872c0.288,0,0.521,0.233,0.521,0.521s-0.233,0.521-0.521,0.521s-0.521-0.233-0.521-0.521
					S75.359,29.872,75.647,29.872 M75.647,29.372c-0.563,0-1.021,0.458-1.021,1.021c0,0.563,0.458,1.021,1.021,1.021
					s1.021-0.458,1.021-1.021C76.668,29.83,76.21,29.372,75.647,29.372L75.647,29.372z"/>
			</g>
			<g>
				<path fill="#FF698B" d="M72,117.367c-2.436,0-4.417-1.982-4.417-4.418s1.981-4.417,4.417-4.417s4.417,1.981,4.417,4.417
					S74.436,117.367,72,117.367z"/>
				<path fill="#00569E" d="M72,109.183c2.08,0,3.767,1.687,3.767,3.767s-1.687,3.767-3.767,3.767s-3.767-1.687-3.767-3.767
					S69.92,109.183,72,109.183 M72,107.883c-2.794,0-5.067,2.273-5.067,5.067s2.273,5.067,5.067,5.067s5.067-2.273,5.067-5.067
					S74.794,107.883,72,107.883L72,107.883z"/>
			</g>
		</g>
	</g>
</g>
<g id="Capa_3">
</g>
</svg>
