<?xml version="1.0" encoding="utf-8"?>
<!-- Generator: Adobe Illustrator 24.2.1, SVG Export Plug-In . SVG Version: 6.00 Build 0)  -->
<svg version="1.1" xmlns="http://www.w3.org/2000/svg" xmlns:xlink="http://www.w3.org/1999/xlink" x="0px" y="0px"
	 viewBox="0 0 144 144" enable-background="new 0 0 144 144" xml:space="preserve">
<g id="Capa_1">
	<g>
		<g>
			
				<linearGradient id="SVGID_5_" gradientUnits="userSpaceOnUse" x1="228.95" y1="-128.3931" x2="343.889" y2="-128.3931" gradientTransform="matrix(0 -1 1 0 200.3931 358.4195)">
				<stop  offset="0.2374" style="stop-color:#FFFFFF;stop-opacity:0"/>
				<stop  offset="0.4859" style="stop-color:#C5F9FF;stop-opacity:0.3369"/>
				<stop  offset="0.7053" style="stop-color:#99F5FF;stop-opacity:0.6345"/>
				<stop  offset="0.8752" style="stop-color:#7EF2FF;stop-opacity:0.8649"/>
				<stop  offset="0.9749" style="stop-color:#74F1FF"/>
			</linearGradient>
			<circle fill="url(#SVGID_5_)" cx="72" cy="72" r="57.47"/>
		</g>
		<g>
			<defs>
				<circle id="SVGID_32_" cx="72" cy="72" r="57.47"/>
			</defs>
			<clipPath id="SVGID_6_">
				<use xlink:href="#SVGID_32_"  overflow="visible"/>
			</clipPath>
			<g clip-path="url(#SVGID_6_)">
				<path fill="#FFFFFF" d="M29.976,111.262v-3.087c0.156-13.26,11.77-19.328,18.68-21.765l0.173-0.061v5.011l-0.677,0.123
					c-2.411,0.443-4.414,2.099-5.228,4.32c-0.223,0.598-0.362,1.228-0.413,1.874l-1.12,14.392c-0.065,0.858,0.231,1.709,0.811,2.334
					c0.584,0.633,1.411,0.996,2.27,0.996h1.919c0.23,0,0.448-0.113,0.583-0.303c0.136-0.191,0.169-0.433,0.089-0.66
					c-0.096-0.275-0.391-0.467-0.719-0.467h-1.873c-0.458,0-0.903-0.195-1.22-0.534c-0.315-0.344-0.473-0.801-0.434-1.257
					l1.12-14.391c0.043-0.524,0.152-1.024,0.324-1.487c0.765-2.082,2.825-3.491,5.125-3.508h0.255c2.259,0,4.26,1.279,5.098,3.258
					c0.234,0.554,0.377,1.138,0.425,1.736l1.12,14.392c0.039,0.454-0.119,0.912-0.433,1.255c-0.318,0.34-0.763,0.535-1.221,0.535
					H52.76c-0.328,0-0.623,0.192-0.719,0.467c-0.08,0.228-0.047,0.469,0.089,0.66c0.135,0.19,0.353,0.303,0.583,0.303h1.919
					c0.859,0,1.686-0.363,2.27-0.996c0.58-0.625,0.876-1.476,0.811-2.335l-1.12-14.397c-0.062-0.76-0.242-1.493-0.535-2.179
					c-0.889-2.109-2.804-3.612-5.121-4.02l-0.683-0.117v-5.273l6.557-1.979l0.307,0.639c0.65,1.378,1.808,4.136,3.349,7.979
					c2.495,6.253,5.409,13.854,6.546,16.832c0.02,0.056,0.026,0.076,0.037,0.093c1.372,3.589,2.843,7.474,4.263,11.255
					c0.106,0.278,0.376,0.465,0.672,0.465c0.293,0,0.561-0.187,0.667-0.466c1.388-3.696,2.857-7.57,4.248-11.203l0.042-0.116
					c2.704-7.069,4.849-12.582,6.555-16.851c1.545-3.858,2.703-6.621,3.348-7.989l0.308-0.64l6.557,1.979v10.389l-0.665,0.129
					c-3.681,0.71-6.195,4.189-5.724,7.92c0.436,3.456,3.396,6.133,6.886,6.228c1.944,0.063,3.781-0.665,5.175-2.023
					c1.395-1.358,2.164-3.175,2.164-5.116c0-3.396-2.414-6.342-5.741-7.004l-0.665-0.135V86.38l0.173,0.061
					c6.832,2.418,18.331,8.436,18.581,21.565v3.3c0,0-14.39,18.145-41.958,18.145S29.976,111.262,29.976,111.262z"/>
				<path fill="#FFFFFF" d="M93.888,52.012c0.128,0,0.265-0.031,0.365-0.084l0.812-0.431l0.339,0.85
					c0.113,0.288,0.17,0.574,0.17,0.852v2.344c0,1.273-1.035,2.308-2.308,2.308h-1.691v-5.458l0.627-0.16
					c0.734-0.18,1.346-0.209,1.576-0.22L93.888,52.012z"/>
				<path fill="#FFFFFF" d="M52.132,57.592h-1.426c-1.129,0-2.048-0.919-2.048-2.048V53.2c0-0.253,0.05-0.506,0.149-0.753
					l0.229-0.579l0.558,0.289c0.144,0.077,0.305,0.115,0.48,0.115c0.372,0.006,0.954,0.048,1.634,0.217l0.425,0.108V57.592z"/>
				<path fill="#FFFFFF" d="M53.352,51.269l-0.01-0.004c-0.598-0.253-1.236-0.439-1.895-0.552l-0.683-0.123V33.927
					c0-5.442,4.427-9.869,9.869-9.869h22.706c5.442,0,9.87,4.427,9.87,9.869V50.59l-0.682,0.123c-0.651,0.11-1.28,0.291-1.871,0.537
					c-0.065,0.025-0.099,0.037-0.131,0.058c-0.209,0.1-0.359,0.172-0.514,0.25L88.8,52.22V38.424c0-2.971-2.417-5.388-5.389-5.388
					h-4.247c-1.278,0-2.528,0.444-3.518,1.252l-0.42,0.342c-1.819,1.484-4.668,1.483-6.486,0l-0.393-0.325
					c-0.992-0.819-2.247-1.269-3.534-1.269H60.56c-2.971,0-5.388,2.417-5.388,5.388V52.22l-1.219-0.665
					c-0.146-0.075-0.294-0.147-0.442-0.213C53.428,51.296,53.392,51.282,53.352,51.269z"/>
				<path fill="#FFFFFF" d="M58.435,69.539c-2.996-3.81-4.612-8.4-4.612-10.785V53.6l1.059,0.32c0.447,0.13,0.927,0.024,1.283-0.285
					c0.278-0.241,0.438-0.623,0.438-1.046V38.418c0-2.182,1.775-3.957,3.957-3.957h4.237c0.951,0,1.881,0.331,2.618,0.931
					l0.42,0.342c1.169,0.954,2.643,1.48,4.15,1.48c1.502,0,2.976-0.526,4.15-1.48l0.404-0.333c0.735-0.607,1.666-0.941,2.619-0.941
					h4.248c2.185,0,3.962,1.777,3.962,3.962v14.216c0,0.542,0.323,1.026,0.823,1.234c0.28,0.117,0.598,0.133,0.894,0.047l1.058-0.32
					v5.154c0,2.388-1.615,6.979-4.607,10.785c-1.158,1.475-2.45,2.755-3.841,3.804c-0.056,0.041-0.081,0.061-0.106,0.08
					c-2.917,2.154-6.146,3.244-9.603,3.244c-3.463,0-6.682-1.082-9.568-3.215l-0.108-0.086
					C60.901,72.306,59.597,71.018,58.435,69.539z"/>
				<path fill="#FFFFFF" d="M60.729,83.782l0.523-0.665c0.866-1.105,1.383-2.545,1.383-3.851v-3.863l1.218,0.658
					c2.513,1.349,5.249,2.033,8.133,2.033c2.884,0,5.62-0.684,8.133-2.033l1.218-0.658v3.863c0,1.306,0.517,2.746,1.383,3.851
					l0.523,0.664l-11.257,8.415L60.729,83.782z"/>
				<polygon fill="#FF698B" points="77.311,96.053 74.452,99.376 69.654,99.376 66.79,96.053 72.053,93.817 				"/>
				<path fill="#00C0DB" d="M75.563,109.625c-1.081,2.822-3.395,8.941-3.395,8.941s-2.593-6.25-3.624-8.941l-0.071-0.191
					l1.659-9.083h3.843l1.659,9.083L75.563,109.625z"/>
				<circle fill="#00C0DB" cx="94.277" cy="103.526" r="6.224"/>
				<path fill="none" d="M62.469,73.162l0.107,0.086c2.836,2.096,6.004,3.161,9.41,3.161c3.4,0,6.578-1.073,9.445-3.19
					c0.023-0.018,0.05-0.04,0.11-0.084c1.371-1.034,2.647-2.299,3.791-3.756c2.957-3.76,4.552-8.28,4.552-10.625V53.95l-0.725,0.219
					c-0.355,0.103-0.734,0.082-1.068-0.056c-0.597-0.248-0.982-0.826-0.982-1.473V38.424c0-2.042-1.661-3.703-3.703-3.703h-4.248
					c-0.893,0-1.765,0.313-2.454,0.881L76.3,35.936c-1.221,0.993-2.753,1.539-4.314,1.539c-1.567,0-3.099-0.546-4.314-1.538
					l-0.42-0.342c-0.691-0.563-1.562-0.873-2.454-0.873H60.56c-2.039,0-3.698,1.659-3.698,3.698v14.171
					c0,0.499-0.192,0.951-0.527,1.242c-0.422,0.366-0.992,0.493-1.527,0.338l-0.726-0.22v4.804c0,2.341,1.597,6.86,4.557,10.625h0
					C59.787,70.84,61.075,72.113,62.469,73.162z"/>
				<polygon fill="none" points="69.903,98.865 74.068,98.865 76.465,96.078 71.986,94.172 67.501,96.078 				"/>
				<path fill="#FF698B" d="M70.268,100.79l-1.551,8.489l0.055,0.148c0.842,2.195,2.802,6.945,3.317,8.189
					c0.466-1.232,2.224-5.875,3.11-8.189l0.055-0.148l-1.551-8.489H70.268z"/>
				<path fill="none" d="M50.071,52.53c-0.216,0-0.417-0.049-0.598-0.145l-0.302-0.157l-0.124,0.313
					c-0.087,0.217-0.131,0.438-0.131,0.658v2.344c0,0.987,0.803,1.789,1.789,1.789h1.167v-4.536l-0.229-0.058
					C50.989,52.577,50.427,52.536,50.071,52.53z"/>
				<path fill="none" d="M95.314,55.544V53.2c0-0.245-0.051-0.5-0.152-0.757l-0.231-0.581l-0.557,0.295
					c-0.139,0.072-0.315,0.114-0.486,0.114l-0.099,0.002c-0.244,0.011-0.816,0.039-1.525,0.212l-0.43,0.11v4.997h1.431
					C94.395,57.592,95.314,56.673,95.314,55.544z"/>
				<path fill="none" d="M54.912,51.783v-13.36c0-3.114,2.534-5.648,5.648-5.648h4.253c1.347,0,2.66,0.472,3.699,1.329l0.393,0.324
					c1.726,1.408,4.431,1.409,6.158-0.001l0.42-0.342c1.037-0.845,2.344-1.31,3.682-1.31h4.247c3.114,0,5.648,2.534,5.648,5.648
					v13.359l0.83-0.455c0.161-0.081,0.312-0.153,0.51-0.247c0.032-0.021,0.077-0.04,0.148-0.067
					c0.618-0.257,1.266-0.443,1.935-0.556l0.467-0.084V33.927c0-5.299-4.311-9.61-9.61-9.61H60.633c-5.299,0-9.61,4.311-9.61,9.61
					v16.446l0.469,0.085c0.676,0.115,1.331,0.306,1.947,0.566c0.051,0.017,0.098,0.035,0.189,0.086
					c0.142,0.063,0.295,0.137,0.447,0.216L54.912,51.783z"/>
				<path fill="#FFFFFF" d="M91.575,52.393v5.458h1.691c1.273,0,2.308-1.035,2.308-2.308V53.2c0-0.278-0.057-0.564-0.17-0.852
					l-0.339-0.85l-0.812,0.431c-0.101,0.052-0.237,0.084-0.365,0.084l-0.111,0.002c-0.23,0.011-0.841,0.04-1.576,0.22L91.575,52.393
					z M93.82,52.141h0.067c0.15,0,0.306-0.036,0.425-0.099l0.685-0.363l0.285,0.716c0.104,0.265,0.161,0.534,0.161,0.804v2.344
					c0,1.203-0.975,2.178-2.178,2.178h-1.561v-5.228l0.529-0.135C92.996,52.173,93.613,52.152,93.82,52.141z"/>
				<path fill="#FFFFFF" d="M80.666,95.997l3.7-9.156l1.342-3.12l-12.301,9.196L80.666,95.997z"/>
				<path fill="#C4F1FF" d="M66.012,33.769c0,0-1.556,1.037-1.556,12.447s-0.059,29.805,16.567,27.609c0,0-2.045,4.028-12.936,2.991
					c-10.891-1.037-14.522-15.559-15.04-19.189s0-5.186,0-5.186s1.556,2.075,2.593,1.037c1.037-1.037,0-15.559,0-15.559
					S55.639,31.695,66.012,33.769z"/>
				<path fill="#00569E" stroke="#00569E" stroke-width="0.5" stroke-miterlimit="10" d="M115.193,108.011
					c-0.25-14.134-12.621-20.454-19.973-22.964l-0.08-0.027l-0.049-0.556c-0.246-2.916-1.42-5.601-3.395-7.766
					c-1.563-1.707-3.548-2.975-5.742-3.667l-1.218-0.387l0.855-0.953c0.371-0.412,0.73-0.839,1.068-1.269
					c3.001-3.811,4.457-7.887,4.818-10.43l0.105-0.708h1.683c2.062,0,3.739-1.677,3.739-3.739V53.2c0-1.348-0.746-2.6-1.946-3.268
					l-0.424-0.24V33.927c0-6.228-5.067-11.296-11.296-11.296H60.628c-6.229,0-11.296,5.067-11.296,11.296v15.764l-0.424,0.24
					c-1.198,0.667-1.941,1.919-1.941,3.269v2.344c0,2.062,1.677,3.739,3.739,3.739h1.685l0.098,0.708
					c0.367,2.547,1.827,6.625,4.823,10.429c0.291,0.377,0.629,0.781,1.064,1.27l0.861,0.947l-1.225,0.388
					c-5.093,1.623-8.68,6.112-9.137,11.438l-0.037,0.52l-0.082,0.028c-7.432,2.517-19.923,8.874-20.076,23.165v1.658l1.297,1.427
					v-3.087c0.156-13.26,11.77-19.328,18.68-21.765l0.173-0.061v5.011l-0.677,0.123c-2.411,0.443-4.414,2.099-5.228,4.32
					c-0.223,0.598-0.362,1.228-0.413,1.874l-1.12,14.392c-0.065,0.858,0.231,1.709,0.811,2.334c0.584,0.633,1.411,0.996,2.27,0.996
					h1.919c0.23,0,0.448-0.113,0.583-0.303c0.136-0.191,0.169-0.433,0.089-0.66c-0.096-0.275-0.391-0.467-0.719-0.467h-1.873
					c-0.458,0-0.903-0.194-1.22-0.534c-0.315-0.344-0.473-0.801-0.434-1.257l1.12-14.391c0.043-0.524,0.152-1.024,0.324-1.487
					c0.765-2.082,2.825-3.491,5.125-3.508h0.255c2.259,0,4.26,1.279,5.098,3.258c0.234,0.554,0.377,1.138,0.425,1.736l1.12,14.392
					c0.039,0.454-0.119,0.912-0.433,1.255c-0.318,0.34-0.763,0.535-1.221,0.535H52.76c-0.328,0-0.623,0.192-0.719,0.467
					c-0.08,0.228-0.047,0.469,0.089,0.66c0.135,0.19,0.353,0.303,0.583,0.303h1.919c0.859,0,1.686-0.363,2.27-0.996
					c0.58-0.625,0.876-1.476,0.811-2.335l-1.12-14.397c-0.062-0.76-0.242-1.493-0.535-2.179c-0.889-2.109-2.804-3.612-5.121-4.02
					l-0.683-0.117v-5.273l6.557-1.979l0.307,0.639c0.65,1.378,1.808,4.136,3.349,7.979c2.495,6.253,5.409,13.854,6.546,16.832
					c0.02,0.056,0.026,0.076,0.037,0.093c1.372,3.589,2.843,7.474,4.263,11.255c0.106,0.278,0.376,0.465,0.672,0.465
					c0.293,0,0.561-0.187,0.667-0.466c1.388-3.696,2.857-7.57,4.248-11.203l0.042-0.115c2.704-7.069,4.849-12.582,6.555-16.851
					c1.545-3.858,2.703-6.621,3.348-7.989l0.308-0.64l6.557,1.979v10.389l-0.665,0.129c-3.681,0.71-6.195,4.189-5.724,7.92
					c0.436,3.456,3.396,6.133,6.886,6.228c1.944,0.063,3.781-0.666,5.175-2.023c1.395-1.358,2.164-3.175,2.164-5.116
					c0-3.396-2.414-6.342-5.741-7.004l-0.664-0.135V86.38l0.173,0.061c6.832,2.418,18.331,8.436,18.581,21.565v3.3l1.302-1.471
					v-1.39c0-0.144,0-0.288-0.005-0.431V108.011z M93.888,52.012c0.128,0,0.265-0.031,0.365-0.084l0.812-0.431l0.339,0.85
					c0.113,0.288,0.17,0.574,0.17,0.852v2.344c0,1.273-1.035,2.308-2.308,2.308h-1.691v-5.458l0.627-0.16
					c0.734-0.18,1.346-0.209,1.576-0.22L93.888,52.012z M52.132,57.592h-1.426c-1.129,0-2.048-0.919-2.048-2.048V53.2
					c0-0.253,0.05-0.506,0.149-0.753l0.229-0.579l0.558,0.289c0.144,0.077,0.305,0.115,0.48,0.115
					c0.372,0.006,0.954,0.048,1.634,0.217l0.425,0.108V57.592z M53.352,51.269l-0.01-0.004c-0.598-0.253-1.236-0.439-1.895-0.552
					l-0.683-0.123V33.927c0-5.442,4.427-9.869,9.869-9.869h22.706c5.442,0,9.87,4.427,9.87,9.869V50.59l-0.682,0.123
					c-0.651,0.11-1.28,0.291-1.871,0.537c-0.065,0.025-0.099,0.037-0.131,0.058c-0.209,0.1-0.359,0.172-0.514,0.25L88.8,52.22
					V38.424c0-2.971-2.417-5.388-5.389-5.388h-4.247c-1.278,0-2.528,0.444-3.518,1.252l-0.42,0.342
					c-1.819,1.484-4.668,1.483-6.486,0l-0.393-0.325c-0.992-0.819-2.247-1.269-3.534-1.269H60.56c-2.971,0-5.388,2.417-5.388,5.388
					V52.22l-1.219-0.665c-0.146-0.075-0.294-0.147-0.442-0.213C53.428,51.296,53.392,51.282,53.352,51.269z M58.435,69.539
					c-2.996-3.81-4.612-8.4-4.612-10.785V53.6l1.059,0.32c0.447,0.13,0.927,0.024,1.283-0.285c0.278-0.241,0.438-0.623,0.438-1.046
					V38.418c0-2.182,1.775-3.957,3.957-3.957h4.237c0.951,0,1.881,0.331,2.618,0.931l0.42,0.342c1.169,0.954,2.643,1.48,4.15,1.48
					c1.502,0,2.976-0.526,4.15-1.48l0.404-0.333c0.735-0.607,1.666-0.941,2.619-0.941h4.248c2.185,0,3.962,1.777,3.962,3.962v14.216
					c0,0.542,0.323,1.026,0.823,1.234c0.28,0.117,0.598,0.133,0.894,0.047l1.058-0.32v5.154c0,2.388-1.615,6.979-4.607,10.785
					c-1.158,1.475-2.45,2.755-3.841,3.804c-0.056,0.041-0.081,0.061-0.106,0.08c-2.917,2.154-6.146,3.244-9.603,3.244
					c-3.463,0-6.682-1.082-9.568-3.215l-0.108-0.086C60.901,72.306,59.597,71.018,58.435,69.539z M60.729,83.782l0.523-0.665
					c0.866-1.105,1.383-2.545,1.383-3.851v-3.863l1.218,0.658c2.513,1.349,5.249,2.033,8.133,2.033c2.884,0,5.62-0.684,8.133-2.033
					l1.218-0.658v3.863c0,1.306,0.517,2.746,1.383,3.851l0.523,0.664l-11.257,8.415L60.729,83.782z M76.893,95.978l-2.706,3.146
					h-4.403l-2.712-3.146l4.913-2.088L76.893,95.978z M56.95,82.57l-6.726,2.026l0.048-0.266l0.224-1.082
					c0.98-4.828,4.904-8.558,9.765-9.281l0.942-0.142v5.441c0,1.12-0.484,2.345-1.263,3.199l-0.381,0.413l-0.522-0.197
					C58.371,82.426,57.631,82.387,56.95,82.57z M60.399,88.744l-2.103-4.998l12.268,9.17l-7.258,3.08L60.399,88.744z
					 M65.266,101.024c-0.398-1.025-0.779-2.005-1.149-2.946l-0.289-0.751l1.868-0.791l2.996,3.485l-1.225,6.706L65.266,101.024z
					 M75.441,109.518c-1.027,2.681-3.226,8.495-3.226,8.495l-0.116,0.306l-0.125-0.302c-0.025-0.059-2.475-5.969-3.445-8.499
					l-0.08-0.216l1.603-8.771h3.867l1.603,8.771L75.441,109.518z M79.855,98.078c-0.352,0.895-0.714,1.826-1.091,2.796l-2.259,5.853
					l-1.224-6.706l2.996-3.485l1.868,0.797L79.855,98.078z M84.366,86.841l-3.7,9.156l-7.258-3.08l12.301-9.196L84.366,86.841z
					 M93.544,84.535l-6.493-1.955c-0.689-0.194-1.441-0.159-2.115,0.101l-0.524,0.198l-0.376-0.413
					c-0.782-0.851-1.268-2.077-1.268-3.199v-5.441l0.942,0.142c4.883,0.719,8.81,4.449,9.77,9.282l0.266,1.321L93.544,84.535z
					 M95.378,97.976c2.354,0.392,4.271,2.309,4.662,4.663c0.309,1.857-0.27,3.68-1.589,5.001c-1.09,1.092-2.525,1.68-4.039,1.68
					c-0.321,0-0.645-0.026-0.97-0.08c-2.359-0.388-4.278-2.308-4.666-4.666c-0.306-1.863,0.277-3.688,1.6-5.01
					C91.697,98.246,93.52,97.666,95.378,97.976z"/>
				<polygon fill="#FFFFFF" points="60.399,88.744 58.295,83.747 70.564,92.917 63.305,95.997 				"/>
				<path fill="#FFFFFF" d="M65.266,101.024c-0.398-1.025-0.779-2.005-1.149-2.946l-0.289-0.751l1.868-0.791l2.996,3.485
					l-1.225,6.706L65.266,101.024z"/>
				<path fill="#FFFFFF" d="M79.855,98.078c-0.352,0.895-0.714,1.826-1.091,2.796l-2.259,5.853l-1.224-6.706l2.996-3.485
					l1.868,0.797L79.855,98.078z"/>
			</g>
		</g>
	</g>
</g>
<g id="Capa_3">
</g>
</svg>
