<?xml version="1.0" encoding="utf-8"?>
<!-- Generator: Adobe Illustrator 24.2.1, SVG Export Plug-In . SVG Version: 6.00 Build 0)  -->
<svg version="1.1" xmlns="http://www.w3.org/2000/svg" xmlns:xlink="http://www.w3.org/1999/xlink" x="0px" y="0px"
	 viewBox="0 0 144 144" enable-background="new 0 0 144 144" xml:space="preserve">
<g id="Capa_1">
	<g>
		<g>
			
				<linearGradient id="SVGID_5_" gradientUnits="userSpaceOnUse" x1="-89.138" y1="189.6948" x2="25.8011" y2="189.6948" gradientTransform="matrix(0 -1 1 0 -117.6948 40.3315)">
				<stop  offset="0.2374" style="stop-color:#FFFFFF;stop-opacity:0"/>
				<stop  offset="0.4859" style="stop-color:#C5F9FF;stop-opacity:0.3369"/>
				<stop  offset="0.7053" style="stop-color:#99F5FF;stop-opacity:0.6345"/>
				<stop  offset="0.8752" style="stop-color:#7EF2FF;stop-opacity:0.8649"/>
				<stop  offset="0.9749" style="stop-color:#74F1FF"/>
			</linearGradient>
			<circle fill="url(#SVGID_5_)" cx="72" cy="72" r="57.47"/>
		</g>
		<g>
			<defs>
				<circle id="SVGID_3_" cx="72" cy="72" r="57.47"/>
			</defs>
			<clipPath id="SVGID_6_">
				<use xlink:href="#SVGID_3_"  overflow="visible"/>
			</clipPath>
			<g clip-path="url(#SVGID_6_)">
				<g>
					<path fill="#FFFFFF" d="M43.121,110.945H35.62c-0.968,0-1.754-0.789-1.754-1.754V76.21c0-0.965,0.786-1.754,1.754-1.754h7.502
						V110.945z"/>
					<path fill="#FFFFFF" d="M50.035,110.945V74.456H73.17v32.381c0,0.924,0.407,2.18,0.764,2.597
						c0.25,0.375,0.556,0.706,0.907,0.987l0.696,0.556L50.035,110.945z"/>
					<path fill="#FFFFFF" d="M82.886,110.732v-9.2c0-4.929,4.011-8.942,8.942-8.942c4.932,0,8.942,4.013,8.942,8.942v9.2H82.886z"/>
					<path fill="#FFFFFF" d="M110.135,106.837c0,2.222-1.808,4.03-4.03,4.03h-4.599v-9.334c0-5.336-4.341-9.677-9.677-9.677
						c-5.336,0-9.677,4.341-9.677,9.677v9.334h-4.155c-2.222,0-4.03-1.808-4.03-4.03V62.013c0-2.222,1.808-4.03,4.03-4.03h28.108
						c2.222,0,4.03,1.808,4.03,4.03V106.837z"/>
				</g>
				<rect x="87.694" y="30.593" fill="#FF698B" width="9.25" height="5.422"/>
				<path fill="#C4F1FF" d="M80.085,57.983c0,0-3.135,25.172,2.556,40.516l-0.05,10.878c0,0,0.319,1.914-0.319,1.914
					s-5.422-0.319-6.06-0.319c-0.638,0-2.552-1.276-2.552-7.017c0-5.741,0-43.379,0-43.379S74.708,56.665,80.085,57.983z"/>
				<rect x="43.04" y="73.972" fill="#00C0DB" width="7.017" height="37"/>
				<g>
					<rect x="89.841" y="32.833" fill="#00569E" width="4.729" height="0.931"/>
					<path fill="#00569E" d="M94.32,33.083v0.431h-4.23v-0.431H94.32 M94.82,32.583h-0.5h-4.23h-0.5v0.5v0.431v0.5h0.5h4.23h0.5
						v-0.5v-0.431V32.583L94.82,32.583z"/>
				</g>
				<g>
					<g>
						<path fill="#00569E" d="M103.719,113.914c-0.31-0.05-0.542-0.333-0.542-0.661v-1.34H82.178v1.362
							c0,0.356-0.292,0.646-0.65,0.646l-0.104-0.008c-0.31-0.05-0.542-0.334-0.542-0.661v-1.262h-4.471v1.26
							c0,0.328-0.232,0.613-0.541,0.663l-0.105,0.008c-0.358,0-0.65-0.29-0.65-0.646v-1.284H39.368v1.284
							c0,0.356-0.292,0.646-0.65,0.646l-0.104-0.008c-0.31-0.05-0.542-0.334-0.542-0.663v-1.26H35.62c-1.544,0-2.8-1.256-2.8-2.8
							V76.21c0-1.544,1.256-2.801,2.8-2.801h17.688v-3.255h-1.019c-1.074,0-1.948-0.873-1.948-1.946v-2.584
							c0-1.074,0.874-1.948,1.948-1.948h6.394c0.25,0,0.409,0.136,0.481,0.217c0.123,0.133,0.181,0.312,0.163,0.499
							c-0.029,0.324-0.338,0.581-0.705,0.581h-6.473c-0.282,0-0.512,0.229-0.512,0.512v3.212c0,0.089,0.074,0.161,0.164,0.161
							h16.283c0.09,0,0.164-0.072,0.164-0.161v-3.212c0-0.282-0.23-0.512-0.512-0.512h-3.54c-0.185,0-0.361-0.077-0.482-0.213
							c-0.124-0.136-0.182-0.314-0.163-0.501c0.032-0.327,0.341-0.583,0.704-0.583h3.342c1.074,0,1.948,0.874,1.948,1.948v2.584
							c0,1.073-0.874,1.946-1.948,1.946h-1.098v3.255h6.421V62.013c0-2.799,2.277-5.076,5.076-5.076h4.474V35.45
							c0-1.491,1.215-2.705,2.707-2.705h1.909v-2.021c0-0.357,0.29-0.647,0.646-0.647h8.947c0.356,0,0.646,0.29,0.646,0.647v2.021
							h1.906c1.492,0,2.707,1.214,2.707,2.705v21.486h4.165c2.799,0,5.076,2.277,5.076,5.076v44.824
							c0,2.799-2.277,5.076-5.076,5.076h-1.632v1.362c0,0.356-0.292,0.646-0.649,0.646L103.719,113.914z M74.823,110.727
							l-0.138-0.11c-0.375-0.301-0.697-0.652-0.958-1.044c-0.405-0.469-0.806-1.811-0.806-2.735V74.706H50.285v35.989
							L74.823,110.727z M48.989,110.695V74.706h-4.821v35.989H48.989z M35.62,74.706c-0.83,0-1.504,0.675-1.504,1.504v32.981
							c0,0.829,0.675,1.504,1.504,1.504h7.251V74.706H35.62z M106.104,110.617c2.084,0,3.78-1.696,3.78-3.78V62.013
							c0-2.084-1.696-3.78-3.78-3.78H77.996c-2.084,0-3.78,1.696-3.78,3.78v44.824c0,2.084,1.696,3.78,3.78,3.78h3.905v-9.085
							c0-5.474,4.453-9.927,9.927-9.927c5.475,0,9.928,4.453,9.928,9.927v9.085H106.104z M100.521,110.483v-8.95
							c0-4.793-3.899-8.692-8.692-8.692c-4.792,0-8.691,3.899-8.691,8.692v8.95H100.521z M65.203,73.409v-3.255H54.607v3.255H65.203
							z M100.644,56.937V35.45c0-0.776-0.632-1.408-1.409-1.408h-1.908v1.83c0,0.358-0.29,0.649-0.646,0.649h-8.947
							c-0.356,0-0.646-0.291-0.646-0.649v-1.83h-1.909c-0.778,0-1.411,0.632-1.411,1.408v21.486H100.644z M96.03,35.225v-3.851
							h-7.648v3.851H96.03z"/>
						<path fill="#00569E" d="M96.679,30.328c0.218,0,0.397,0.179,0.397,0.397v2.271h2.156c1.357,0,2.457,1.1,2.457,2.455v21.736
							h4.415c2.666,0,4.826,2.161,4.826,4.826v44.824c0,2.666-2.161,4.826-4.826,4.826h-1.882v1.612c0,0.219-0.179,0.397-0.4,0.397
							c-0.021,0-0.043-0.002-0.065-0.005c-0.196-0.032-0.331-0.218-0.331-0.414v-1.59H81.928v1.612c0,0.219-0.179,0.397-0.4,0.397
							c-0.021,0-0.043-0.002-0.065-0.005c-0.196-0.032-0.331-0.218-0.331-0.414v-1.512h-4.971v1.509
							c0,0.198-0.137,0.385-0.331,0.417c-0.022,0.003-0.044,0.005-0.065,0.005c-0.221,0-0.4-0.178-0.4-0.397v-1.534H39.118v1.534
							c0,0.219-0.179,0.397-0.4,0.397c-0.021,0-0.043-0.002-0.065-0.005c-0.196-0.032-0.331-0.218-0.331-0.417v-1.509H35.62
							c-1.409,0-2.55-1.142-2.55-2.55V76.21c0-1.409,1.142-2.55,2.55-2.55h17.938v-3.756h-1.269c-0.938,0-1.698-0.759-1.698-1.695
							v-2.585c0-0.938,0.76-1.698,1.698-1.698h6.394c0.152,0,0.25,0.083,0.294,0.132c0.054,0.059,0.115,0.159,0.1,0.309
							c-0.017,0.196-0.223,0.355-0.456,0.355h-6.473c-0.419,0-0.762,0.343-0.762,0.762v3.212c0,0.228,0.186,0.412,0.414,0.412
							h16.282c0.228,0,0.414-0.184,0.414-0.412v-3.212c0-0.419-0.341-0.762-0.762-0.762h-3.54c-0.154,0-0.252-0.081-0.296-0.13
							c-0.054-0.059-0.115-0.162-0.1-0.309c0.02-0.198,0.223-0.358,0.456-0.358h3.342c0.938,0,1.698,0.76,1.698,1.698v2.585
							c0,0.936-0.76,1.695-1.698,1.695h-1.347v3.756h6.921V62.013c0-2.666,2.161-4.826,4.826-4.826h4.724V35.45
							c0-1.355,1.1-2.455,2.457-2.455h2.158v-2.271c0-0.218,0.176-0.397,0.397-0.397H96.679 M88.132,35.475h8.148v-4.351h-8.148
							V35.475 M87.732,36.271c-0.221,0-0.397-0.179-0.397-0.399v-2.08h-2.158c-0.916,0-1.661,0.745-1.661,1.659v21.736h17.377V35.45
							c0-0.914-0.745-1.659-1.659-1.659h-2.158v2.08c0,0.22-0.179,0.399-0.397,0.399H87.732 M77.996,110.867h4.155v-9.334
							c0-5.336,4.341-9.677,9.677-9.677s9.677,4.341,9.677,9.677v9.334h4.599c2.222,0,4.03-1.808,4.03-4.03V62.013
							c0-2.222-1.808-4.03-4.03-4.03H77.996c-2.222,0-4.03,1.808-4.03,4.03v44.824C73.966,109.059,75.774,110.867,77.996,110.867
							 M54.357,73.66h11.096v-3.756H54.357V73.66 M75.536,110.977l-0.696-0.556c-0.35-0.282-0.657-0.612-0.907-0.987
							c-0.358-0.416-0.764-1.673-0.764-2.597V74.456H50.035v36.49L75.536,110.977 M43.917,110.945h5.321v-36.49h-5.321V110.945
							 M35.62,110.945h7.502v-36.49H35.62c-0.968,0-1.754,0.789-1.754,1.754v32.981C33.865,110.156,34.652,110.945,35.62,110.945
							 M82.886,110.732h17.885v-9.2c0-4.929-4.011-8.942-8.942-8.942s-8.942,4.013-8.942,8.942V110.732 M96.679,29.828h-8.947
							c-0.495,0-0.897,0.402-0.897,0.897v1.771h-1.658c-1.631,0-2.957,1.326-2.957,2.955v21.236h-4.224
							c-2.937,0-5.326,2.389-5.326,5.326V73.16h-5.921v-2.756h0.847c1.212,0,2.198-0.985,2.198-2.195v-2.585
							c0-1.212-0.986-2.198-2.198-2.198h-3.342c-0.49,0-0.909,0.355-0.953,0.809c-0.026,0.259,0.056,0.506,0.229,0.696
							c0.166,0.184,0.409,0.292,0.665,0.292h3.54c0.144,0,0.262,0.117,0.262,0.262v3.123h-16.11v-3.123
							c0-0.142,0.12-0.262,0.262-0.262h6.473c0.495,0,0.914-0.357,0.954-0.812c0.025-0.254-0.056-0.501-0.23-0.69
							c-0.168-0.186-0.41-0.295-0.663-0.295h-6.394c-1.212,0-2.198,0.986-2.198,2.198v2.585c0,1.211,0.986,2.195,2.198,2.195h0.769
							v2.756H35.62c-1.682,0-3.05,1.368-3.05,3.05v32.981c0,1.682,1.368,3.05,3.05,3.05h2.202v1.009c0,0.449,0.323,0.841,0.75,0.91
							c0.051,0.008,0.099,0.012,0.145,0.012c0.496,0,0.9-0.402,0.9-0.897v-1.034h35.247v1.034c0,0.495,0.404,0.897,0.9,0.897
							c0.047,0,0.094-0.004,0.143-0.011c0.431-0.071,0.753-0.462,0.753-0.91v-1.009h3.971v1.012c0,0.448,0.323,0.838,0.75,0.908
							c0.051,0.008,0.099,0.012,0.145,0.012c0.496,0,0.9-0.402,0.9-0.897v-1.112h20.498v1.09c0,0.448,0.323,0.838,0.75,0.908
							c0.051,0.008,0.099,0.012,0.145,0.012c0.496,0,0.9-0.402,0.9-0.897v-1.112h1.382c2.937,0,5.326-2.389,5.326-5.326V62.013
							c0-2.937-2.389-5.326-5.326-5.326h-3.915V35.45c0-1.629-1.327-2.955-2.957-2.955h-1.656v-1.771
							C97.576,30.23,97.174,29.828,96.679,29.828L96.679,29.828z M88.632,31.624h7.148v3.351h-7.148V31.624L88.632,31.624z
							 M97.576,34.292h1.658c0.639,0,1.159,0.52,1.159,1.159v21.236H84.016V35.45c0-0.639,0.521-1.159,1.161-1.159h1.658v1.58
							c0,0.496,0.402,0.899,0.897,0.899h8.947c0.495,0,0.897-0.403,0.897-0.899V34.292L97.576,34.292z M77.996,110.367
							c-1.946,0-3.53-1.584-3.53-3.53V62.013c0-1.947,1.584-3.53,3.53-3.53h28.108c1.947,0,3.53,1.584,3.53,3.53v44.824
							c0,1.947-1.584,3.53-3.53,3.53h-4.099v-8.834c0-5.612-4.565-10.177-10.177-10.177c-5.612,0-10.177,4.565-10.177,10.177v8.834
							H77.996L77.996,110.367z M54.857,70.404h10.096v2.756H54.857V70.404L54.857,70.404z M50.535,74.956H72.67v31.881
							c0,0.975,0.409,2.341,0.864,2.897c0.179,0.266,0.386,0.514,0.617,0.741l-23.616-0.029V74.956L50.535,74.956z M44.417,74.956
							h4.321v35.49h-4.321V74.956L44.417,74.956z M35.62,110.445c-0.692,0-1.254-0.563-1.254-1.254V76.21
							c0-0.692,0.563-1.254,1.254-1.254h7.002v35.49H35.62L35.62,110.445z M83.386,110.232v-8.7c0-4.655,3.787-8.442,8.442-8.442
							s8.442,3.787,8.442,8.442v8.7H83.386L83.386,110.232z"/>
					</g>
				</g>
				<g>
					<g>
						<path fill="#00569E" d="M81.661,67.74c-0.34,0-0.617-0.277-0.617-0.617s0.277-0.617,0.617-0.617h20.58
							c0.34,0,0.617,0.277,0.617,0.617s-0.277,0.617-0.617,0.617H81.661z"/>
						<path fill="#00569E" d="M102.241,66.756c0.203,0,0.367,0.165,0.367,0.367s-0.164,0.367-0.367,0.367H81.661
							c-0.203,0-0.367-0.165-0.367-0.367s0.164-0.367,0.367-0.367H102.241 M102.241,66.256H81.661c-0.478,0-0.867,0.389-0.867,0.867
							s0.389,0.867,0.867,0.867h20.579c0.478,0,0.867-0.389,0.867-0.867S102.719,66.256,102.241,66.256L102.241,66.256z"/>
					</g>
				</g>
			</g>
		</g>
	</g>
</g>
<g id="Capa_3">
</g>
</svg>
