<?xml version="1.0" encoding="utf-8"?>
<!-- Generator: Adobe Illustrator 24.2.1, SVG Export Plug-In . SVG Version: 6.00 Build 0)  -->
<svg version="1.1" xmlns="http://www.w3.org/2000/svg" xmlns:xlink="http://www.w3.org/1999/xlink" x="0px" y="0px"
	 viewBox="0 0 144 144" enable-background="new 0 0 144 144" xml:space="preserve">
<g id="Capa_1">
	<g>
		<g>
			
				<linearGradient id="SVGID_5_" gradientUnits="userSpaceOnUse" x1="-566.2699" y1="666.8267" x2="-451.3309" y2="666.8267" gradientTransform="matrix(0 -1 1 0 -594.8267 -436.8004)">
				<stop  offset="0.2374" style="stop-color:#FFFFFF;stop-opacity:0"/>
				<stop  offset="0.4859" style="stop-color:#C5F9FF;stop-opacity:0.3369"/>
				<stop  offset="0.7053" style="stop-color:#99F5FF;stop-opacity:0.6345"/>
				<stop  offset="0.8752" style="stop-color:#7EF2FF;stop-opacity:0.8649"/>
				<stop  offset="0.9749" style="stop-color:#74F1FF"/>
			</linearGradient>
			<circle fill="url(#SVGID_5_)" cx="72" cy="72" r="57.47"/>
		</g>
		<g>
			<circle fill="#00C0DB" stroke="#00569E" stroke-width="2" stroke-miterlimit="10" cx="41.918" cy="101.207" r="7.926"/>
			<circle fill="#FFFFFF" stroke="#00569E" stroke-width="2" stroke-miterlimit="10" cx="72.73" cy="103.94" r="7.926"/>
			<circle fill="#FFFFFF" stroke="#00569E" stroke-width="2" stroke-miterlimit="10" cx="105.102" cy="38.087" r="7.926"/>
			<circle fill="#FFFFFF" stroke="#00569E" stroke-width="2" stroke-miterlimit="10" cx="46.837" cy="42.55" r="4.919"/>
			<circle fill="#FF698B" stroke="#00569E" stroke-width="2" stroke-miterlimit="10" cx="98.468" cy="94.499" r="4.919"/>
			<line fill="none" stroke="#00569E" stroke-width="2" stroke-miterlimit="10" x1="81.045" y1="76.008" x2="95.08" y2="90.935"/>
			<line fill="none" stroke="#00569E" stroke-width="2" stroke-miterlimit="10" x1="98.553" y1="42.55" x2="80.577" y2="60.589"/>
			<line fill="none" stroke="#00569E" stroke-width="2" stroke-miterlimit="10" x1="50.717" y1="46.013" x2="64.724" y2="60.589"/>
			<line fill="none" stroke="#00569E" stroke-width="2" stroke-miterlimit="10" x1="47.052" y1="94.647" x2="64.724" y2="76.008"/>
			<line fill="none" stroke="#00569E" stroke-width="2" stroke-miterlimit="10" x1="72.81" y1="79.657" x2="72.651" y2="96.014"/>
			<circle fill="#FFFFFF" stroke="#00569E" stroke-width="1.0449" stroke-miterlimit="10" cx="72.81" cy="69.079" r="11.116"/>
			<path fill="#C4F1FF" d="M72.131,57.962c0,0-4.002,5.839-3.961,10.963c0.04,5.125,3.961,11.27,3.961,11.27
				s-9.862-0.751-10.409-10.147C61.061,58.689,72.131,57.962,72.131,57.962z"/>
			<circle fill="none" stroke="#00569E" stroke-width="2" stroke-miterlimit="10" cx="72.81" cy="68.541" r="11.116"/>
		</g>
	</g>
</g>
<g id="Capa_3">
</g>
</svg>
